<svg width="1093" height="70" viewBox="0 0 1093 70" fill="none" xmlns="http://www.w3.org/2000/svg">
<path d="M510.874 29.7807C510.813 29.7426 510.774 29.6893 510.763 29.4954C510.654 27.662 510.658 25.9768 511.59 24.4268C511.87 23.9618 512.08 23.4578 512.322 22.9716C512.322 22.9716 512.322 22.9432 512.398 22.9038C513.321 22.2588 514.168 21.6531 515.015 21.0475C515.308 21.0099 515.655 21.053 515.878 20.9123C516.108 20.7679 516.417 20.3381 516.348 20.2141C514.922 17.6764 515.386 15.3656 517.347 13.3585C519.184 11.4786 521.369 10.2386 524.226 10.854C524.33 10.8765 524.447 10.8464 524.683 10.8347C524.429 7.93942 525.624 5.79493 528.416 4.63086C530.97 3.56581 533.521 3.23787 536.078 5.1674C536.839 2.23255 538.764 0.603433 541.79 0.335155C544.618 0.0844662 547.154 0.633149 548.789 3.19526C551.353 -0.0735028 553.065 -0.647367 556.664 0.629815C556.964 0.789788 557.145 0.864783 557.326 0.939778C557.326 0.939778 557.343 0.930891 557.4 0.968508C557.564 1.05772 557.672 1.10931 557.78 1.16091C557.78 1.16091 557.794 1.15389 557.841 1.21984C558.648 1.89342 559.407 2.50105 560.167 3.10868C560.167 3.10868 560.122 3.09717 560.149 3.1535C560.454 3.77101 560.732 4.33219 561.009 4.89336C561.009 4.89336 561.032 4.94108 561.041 5.02956C561.476 5.92501 561.99 5.30924 562.477 5.20424C563.338 5.01885 564.197 4.81771 565.067 4.69618C565.195 4.67832 565.383 5.06141 565.451 5.25963C565.24 5.23107 565.121 5.20187 564.997 5.17199C564.991 5.17132 564.959 5.16935 564.861 5.19042C564.562 5.22605 564.362 5.2406 564.106 5.24848C563.871 5.27782 563.692 5.31383 563.45 5.39587C562.029 5.89355 561.215 6.85194 560.747 8.12082C559.827 10.6196 560.404 13.0311 561.277 15.4034C561.361 15.6314 561.868 15.8627 562.162 15.8445C563.743 15.7462 565.337 15.6661 566.888 15.3815C567.745 15.2242 568.623 14.8011 569.323 14.2842C571.161 12.9266 571.343 11.1114 570.058 8.41439C570.257 8.21459 570.46 8.06932 570.664 7.92405C570.664 7.92405 570.615 7.92646 570.633 7.98412C571.037 8.97149 571.421 9.90119 571.806 10.8309C571.826 11.0025 571.845 11.1741 571.814 11.4948C571.849 12.107 571.958 12.5676 572.012 13.0342C572.037 13.2553 571.956 13.4877 571.866 13.7632C569.852 14.7946 568.823 16.4522 568.288 18.4346C568.004 19.4841 567.826 20.5602 567.598 21.5264C567.736 20.43 567.912 19.4345 567.999 18.4319C568.043 17.9148 567.93 17.3849 567.912 16.7847C567.82 16.5289 567.681 16.1826 567.591 16.1939C565.771 16.4207 563.956 16.6886 561.938 16.9771C562.475 17.8755 562.995 18.7451 563.462 19.661C563.286 19.9014 563.163 20.0956 562.978 20.2477C562.37 19.4163 561.733 18.6695 561.305 17.8238C560.976 17.1728 560.523 16.9162 559.853 16.8019C557.605 16.4186 555.633 15.4567 553.809 14.1465C553.476 13.9071 552.908 13.772 552.507 13.8553C550.014 14.3737 547.556 14.3699 545.087 13.7116C544.727 13.6154 544.164 13.7074 543.884 13.9326C541.596 15.7732 538.997 16.6529 536.019 16.5908C535.586 16.5817 534.975 16.8608 534.732 17.1986C533.318 19.1616 531.458 20.5109 529.183 21.414C528.759 21.5824 528.342 22.1093 528.204 22.5529C527.562 24.6194 526.636 26.5301 525.11 28.1136C524.607 28.6357 524.482 29.1266 524.615 29.7895C525.089 32.1522 524.78 34.4503 523.987 36.7151C523.875 37.0363 523.883 37.5549 524.08 37.7946C525.73 39.8054 526.305 42.1581 526.621 44.6301C526.68 45.0866 527.03 45.6377 527.421 45.9032C529.385 47.2358 530.999 48.8645 532.058 50.9397C532.442 51.6917 532.952 52.0232 533.744 52.1803C535.653 52.5587 537.475 53.1428 538.969 54.5491C539.066 54.6845 539.12 54.7622 539.164 54.8385C539.154 54.8372 539.157 54.8167 539.2 54.8551C539.299 54.9465 539.354 54.9996 539.399 55.0527C539.388 55.0527 539.388 55.0315 539.431 55.0709C539.528 55.1647 539.583 55.2191 539.656 55.2347C539.674 55.1959 539.758 55.2231 539.664 55.2593C539.316 55.3758 539.061 55.4561 538.772 55.5292C538.739 55.522 538.691 55.4756 538.651 55.4429C538.558 55.3672 538.503 55.3258 538.401 55.2724C538.295 55.2333 538.25 55.1919 538.168 55.0953C538.006 54.9844 537.895 54.9128 537.788 54.839C537.79 54.8367 537.789 54.8433 537.73 54.8057C537.592 54.7181 537.513 54.6683 537.363 54.5984C535.966 53.9625 534.711 53.1481 533.27 53.0937C533.511 54.9553 533.727 56.7107 533.988 58.4599C534.007 58.5906 534.345 58.6769 534.584 58.7504C534.697 58.6703 534.761 58.6236 534.824 58.5715C534.823 58.566 534.834 58.5702 534.891 58.5338C535.058 58.4156 535.167 58.3339 535.306 58.2183C535.387 58.1491 535.444 58.1322 535.567 58.1054C535.745 58.0186 535.862 57.9601 535.97 57.9161C535.961 57.9306 535.93 57.9118 535.993 57.8827C536.182 57.7973 536.307 57.7411 536.414 57.6981C536.396 57.7114 536.368 57.6759 536.436 57.652C536.705 57.5061 536.906 57.3843 537.152 57.2205C537.35 57.1313 537.504 57.084 537.73 57.0037C537.943 56.8998 538.085 56.8289 538.28 56.7127C538.641 56.5735 538.95 56.4796 539.276 56.3415C539.322 56.1737 539.349 56.05 539.37 55.9527C539.363 55.979 539.309 55.966 539.372 55.9292C539.641 55.7666 539.847 55.6407 540.133 55.5229C540.321 55.5379 540.428 55.5449 540.596 55.5659C540.912 55.503 541.168 55.4261 541.513 55.3224C541.725 55.2894 541.849 55.2831 541.967 55.2766C541.962 55.2762 541.944 55.2801 542.051 55.2509C542.45 55.1902 542.743 55.1588 543.11 55.1456C543.583 55.1381 543.982 55.1123 544.441 55.0794C544.543 55.0799 544.583 55.0876 544.677 55.1102C544.915 55.1233 545.099 55.1213 545.366 55.1166C545.554 55.147 545.658 55.1802 545.804 55.2399C546.041 55.2745 546.236 55.2828 546.509 55.2849C546.691 55.2981 546.794 55.3177 546.956 55.3838C547.42 55.5261 547.826 55.6219 548.297 55.7174C548.402 55.7314 548.442 55.7457 548.529 55.795C548.914 55.7673 549.253 55.7046 549.614 55.6027C549.682 55.5173 549.737 55.4914 549.863 55.4431C550.012 55.3544 550.101 55.3084 550.205 55.1977C550.371 55.0359 550.521 54.9387 550.734 54.8269C551.012 54.6744 551.225 54.5366 551.458 54.3828C551.476 54.3669 551.525 54.3789 551.602 54.3592C551.903 54.2126 552.126 54.0859 552.396 53.9146C552.564 53.8309 552.686 53.7919 552.837 53.7505C552.927 53.741 552.985 53.728 553.089 53.6692C553.256 53.5986 553.375 53.5682 553.516 53.5392C553.598 53.5424 553.652 53.5273 553.775 53.4533C553.957 53.3889 554.067 53.3666 554.246 53.3611C554.718 53.2917 555.121 53.2055 555.628 53.1004C556.505 53.1025 557.278 53.1235 558.075 53.1501C558.145 53.1653 558.193 53.1713 558.345 53.1756C558.583 53.2085 558.717 53.2394 558.848 53.2677C558.845 53.2651 558.839 53.2651 558.919 53.2111C559.055 53.1249 559.111 53.0927 559.215 53.0138C559.382 52.7809 559.501 52.5946 559.624 52.4123C559.629 52.4162 559.617 52.4139 559.656 52.374C559.746 52.2809 559.799 52.2286 559.819 52.1796C559.787 52.1821 559.781 52.1188 559.855 52.1387C559.977 52.1713 560.026 52.1841 560.112 52.2384C560.2 52.3342 560.254 52.3851 560.313 52.505C560.314 52.674 560.315 52.7706 560.294 52.9373C560.314 53.1745 560.312 53.4525 560.409 53.4895C560.821 53.6475 561.262 53.7343 561.729 53.8877C562.359 54.7405 561.416 54.3727 561.12 54.572C560.878 54.5133 560.744 54.4658 560.6 54.4167C560.59 54.4152 560.552 54.4085 560.472 54.4103C560.287 54.3888 560.183 54.3656 560.046 54.3085C559.826 54.2594 559.639 54.2442 559.396 54.2902C559.292 54.3825 559.245 54.4137 559.156 54.4945C559.057 54.6113 559 54.6784 558.958 54.7687C558.974 54.7919 558.945 54.839 558.894 54.8872C558.736 55.1381 558.629 55.3408 558.507 55.5343C558.492 55.5252 558.511 55.4956 558.471 55.5375C558.378 55.634 558.324 55.6887 558.318 55.737C558.366 55.7307 558.381 55.8232 558.276 55.8068C557.962 55.7628 557.753 55.7352 557.559 55.6298C557.805 55.0871 558.035 54.6224 558.31 54.0634C557.707 54.0068 557.302 53.9687 556.881 53.8898C556.726 53.876 556.586 53.9032 556.352 53.9433C555.711 54.0148 555.162 54.0734 554.556 54.1239C554.307 54.1492 554.116 54.1826 553.937 54.1969C553.949 54.1778 553.989 54.2019 553.915 54.2202C553.655 54.3094 553.468 54.3804 553.226 54.4984C552.895 54.6435 552.62 54.7417 552.292 54.8417C552.048 54.9403 551.857 55.037 551.653 55.1105C551.639 55.0872 551.687 55.061 551.648 55.1016C551.555 55.1964 551.502 55.2506 551.412 55.3587C551.182 55.5195 550.99 55.6263 550.734 55.7602C550.548 55.8449 550.424 55.9025 550.325 55.9337C550.351 55.9073 550.406 55.957 550.345 56.0033C549.989 56.374 549.694 56.6984 549.336 57.0597C548.901 57.443 548.529 57.7894 548.095 58.1931C547.955 58.3282 547.876 58.4058 547.792 58.5338C547.72 58.657 547.652 58.7299 547.542 58.8421C547.448 58.935 547.394 58.9887 547.341 59.0278C547.342 59.0132 547.372 59.0137 547.32 59.0681C547.141 59.2776 547.015 59.4327 546.886 59.6384C546.817 59.7623 546.75 59.8356 546.642 59.9468C546.544 60.0358 546.489 60.0868 546.431 60.1273C546.43 60.1168 546.451 60.1132 546.422 60.1703C546.333 60.3412 546.272 60.4551 546.208 60.5643C546.204 60.5597 546.216 60.5609 546.183 60.6099C546.09 60.7601 546.03 60.8613 545.961 61.017C545.904 61.1271 545.857 61.1826 545.773 61.2956C545.673 61.4724 545.609 61.5916 545.538 61.7845C545.436 62.0861 545.342 62.3142 545.197 62.6053C544.697 63.6769 544.65 64.6643 545.357 65.6586C545.445 65.8171 545.489 65.931 545.491 66.0804C545.203 66.1711 544.957 66.2264 544.711 66.2816C544.683 66.2319 544.654 66.1822 544.566 66.0334C544.258 66.1522 544.009 66.37 543.759 66.5879C543.759 66.5879 543.687 66.5644 543.716 66.5567C543.739 66.6072 543.725 66.664 543.705 66.7194C543.618 66.8421 543.532 66.9647 543.346 67.164C543.179 67.3134 543.111 67.3861 543.044 67.4588C543.018 67.4903 542.992 67.5218 542.874 67.6083C542.71 67.722 542.639 67.7807 542.568 67.8394C542.568 67.8394 542.57 67.8258 542.505 67.8437C542.18 68.0418 541.919 68.2222 541.658 68.4026C541.621 68.4215 541.584 68.4405 541.443 68.4589C541.217 68.5134 541.096 68.5684 540.975 68.6234C540.875 68.6499 540.774 68.6765 540.554 68.651C540.311 68.3781 540.188 68.1571 540.14 67.9122C540.319 67.883 540.424 67.8778 540.575 67.8738C540.744 67.8483 540.866 67.8217 541.007 67.7838C541.025 67.7724 541.049 67.808 541.126 67.7815C541.431 67.6201 541.659 67.4853 541.885 67.3652C541.883 67.3799 541.853 67.3763 541.914 67.3461C542.098 67.2576 542.22 67.1991 542.341 67.1514C542.339 67.1621 542.317 67.1584 542.357 67.1177C542.453 67.0244 542.509 66.9718 542.564 66.9288C542.564 66.9384 542.544 66.9384 542.585 66.8977C542.681 66.8044 542.736 66.7518 542.792 66.709C542.792 66.7187 542.772 66.7188 542.812 66.6776C542.907 66.5833 542.962 66.5303 543.02 66.4882C543.023 66.4992 543 66.5042 543.029 66.4386C543.112 66.2406 543.167 66.1082 543.233 65.9162C543.314 65.7582 543.384 65.6599 543.487 65.5C543.579 65.3101 543.638 65.1817 543.68 65.0594C543.661 65.0654 543.649 65.0303 543.681 64.953C543.736 64.4696 543.76 64.0635 543.77 63.5701C543.763 63.3068 543.769 63.1307 543.797 62.8833C544.009 62.4216 544.2 62.0311 544.41 61.6491C544.429 61.6575 544.451 61.6929 544.451 61.6958C544.451 61.6987 544.453 61.725 544.515 61.6694C544.814 61.2586 545.052 60.9035 545.329 60.4929C545.421 60.3624 545.474 60.2875 545.517 60.1861C545.509 60.1596 545.542 60.1141 545.576 60.0717C545.654 59.9723 545.696 59.9142 545.743 59.8192C545.765 59.7329 545.799 59.7001 545.897 59.6285C546.027 59.4546 546.112 59.3374 546.211 59.1732C546.26 59.0651 546.31 59.0238 546.425 58.9651C546.535 58.8785 546.598 58.8289 546.661 58.7896C546.662 58.8 546.641 58.8015 546.673 58.7481C546.768 58.5871 546.832 58.4795 546.891 58.367C546.888 58.362 546.9 58.3625 546.937 58.3228C547.023 58.2294 547.07 58.1748 547.117 58.1299C547.119 58.1405 547.097 58.1431 547.137 58.1012C547.23 58.0029 547.282 57.9463 547.358 57.836C547.494 57.6726 547.606 57.5628 547.772 57.4101C547.951 57.1964 548.078 57.0257 548.179 56.8066C548.117 56.6956 548.072 56.6379 547.963 56.55C547.826 56.4708 547.748 56.4265 547.614 56.3988C547.485 56.3948 547.411 56.3742 547.28 56.3288C547.104 56.2576 546.987 56.2113 546.88 56.1609C546.89 56.1568 546.898 56.1764 546.818 56.142C545.43 55.6739 544.119 55.4464 542.726 56.0988C542.544 56.1258 542.438 56.1288 542.271 56.1159C541.95 56.1854 541.692 56.2708 541.389 56.393C541.301 56.491 541.257 56.5522 541.223 56.6533C541.325 56.7971 541.416 56.9011 541.56 57.0399C541.716 57.2042 541.819 57.3338 541.818 57.4679C541.439 57.485 541.163 57.4976 540.831 57.4771C540.507 57.2402 540.239 57.0364 539.895 56.8519C539.598 56.9873 539.377 57.1033 539.113 57.2423C539.072 57.2652 538.977 57.2785 538.912 57.3027C538.72 57.3824 538.593 57.4379 538.45 57.5069C538.435 57.5204 538.4 57.4979 538.317 57.5166C537.858 57.7364 537.482 57.9375 537.063 58.1816C536.905 58.2731 536.792 58.3217 536.616 58.3982C536.432 58.483 536.31 58.5398 536.19 58.585C536.193 58.5734 536.217 58.5788 536.176 58.6117C536.08 58.688 536.025 58.7313 535.963 58.7886C535.956 58.8025 535.925 58.7955 535.875 58.8232C535.729 58.9115 535.632 58.9722 535.493 59.0901C535.105 59.4019 534.76 59.6566 534.369 59.9481C534.264 60.0371 534.205 60.0893 534.146 60.1293C534.145 60.1171 534.17 60.1158 534.129 60.1559C534.031 60.2495 533.976 60.3029 533.919 60.3459C533.918 60.3355 533.939 60.3335 533.907 60.3837C533.812 60.5368 533.75 60.6397 533.673 60.7995C533.604 60.914 533.551 60.9718 533.465 61.0899C533.378 61.2769 533.323 61.4037 533.266 61.6023C533.192 61.9002 533.119 62.1263 533.018 62.4138C533.003 62.7796 533.017 63.0839 533.064 63.4613C533.302 64.0739 533.508 64.6135 533.741 65.212C533.828 65.3879 533.887 65.5047 533.935 65.6196C533.924 65.6177 533.928 65.5966 533.97 65.6358C534.066 65.7292 534.12 65.7834 534.163 65.839C534.153 65.8405 534.15 65.8208 534.21 65.8605C534.35 65.954 534.43 66.0077 534.56 66.0737C534.684 66.1528 534.757 66.2197 534.873 66.3234C534.969 66.4084 535.026 66.456 535.07 66.5059C535.057 66.5088 535.051 66.4839 535.105 66.5161C535.269 66.6094 535.38 66.6704 535.497 66.728C535.504 66.7247 535.51 66.7386 535.556 66.7707C535.667 66.8429 535.731 66.8831 535.862 66.9358C536.159 67.0806 536.39 67.213 536.688 67.3768C536.938 67.4721 537.122 67.5359 537.315 67.594C537.324 67.5883 537.336 67.6061 537.335 67.6588C537.334 67.7116 537.331 67.817 537.28 67.8511C537.061 68.001 536.893 68.1168 536.725 68.2327C536.669 68.2151 536.613 68.1974 536.468 68.1178C536.325 68.0269 536.268 68.0146 536.206 68.0189C535.841 67.8477 535.475 67.6765 535.044 67.4614C534.979 67.4176 535.011 67.4454 535.011 67.4454C534.98 67.4195 534.95 67.3937 534.839 67.2844C534.63 67.1159 534.502 67.0307 534.375 66.9456C534.375 66.9456 534.377 66.9412 534.34 66.8883C534.071 66.6494 533.839 66.4634 533.607 66.2774C533.042 65.2927 532.477 64.3081 531.883 63.2728C531.463 63.4994 530.962 63.7698 530.322 64.0632C529.54 64.2016 528.897 64.317 528.254 64.4324C528.074 64.418 527.894 64.4037 527.573 64.3166C526.76 63.9897 526.086 63.7355 525.413 63.4813C525.413 63.4813 525.451 63.4321 525.42 63.4098C525.141 63.2486 524.894 63.1097 524.647 62.9709C524.647 62.9709 524.613 62.9689 524.579 62.892C524.33 62.6519 524.117 62.4889 523.903 62.3258C523.903 62.3258 523.914 62.3212 523.878 62.2865C523.793 62.1987 523.742 62.1479 523.689 62.0994C523.689 62.0994 523.684 62.1009 523.654 62.0439C523.561 61.8775 523.498 61.7682 523.436 61.6589C523.436 61.6589 523.457 61.6623 523.413 61.633C523.317 61.5494 523.263 61.4952 523.209 61.4409C523.209 61.4409 523.232 61.4923 523.187 61.4358C522.926 61.1097 522.71 60.8403 522.493 60.5708C522.455 60.5252 522.416 60.4795 522.339 60.2769C522.092 59.6785 521.884 59.2371 521.676 58.7957C521.676 58.7957 521.654 58.7774 521.684 58.6848C521.798 58.0073 521.881 57.4223 521.998 56.6048C522.16 57.1224 522.251 57.4123 522.356 57.754C522.385 57.8806 522.37 57.9494 522.346 58.0837C522.413 58.2947 522.461 58.4343 522.527 58.6306C522.545 58.7268 522.545 58.7663 522.545 58.8557C522.624 59.0884 522.704 59.2711 522.798 59.4801C522.81 59.5063 522.777 59.5544 522.816 59.6112C522.909 59.7415 522.964 59.8151 523.064 59.9262C523.158 60.0683 523.206 60.1729 523.281 60.345C523.461 60.6057 523.613 60.7989 523.742 61.0083C523.72 61.0245 523.686 60.9807 523.731 61.0179C523.834 61.1046 523.893 61.1541 524.012 61.2356C524.248 61.4659 524.426 61.6641 524.644 61.9018C524.743 61.9898 524.801 62.0384 524.93 62.1258C525.202 62.3399 525.404 62.5151 525.62 62.7008C525.635 62.7112 525.699 62.7521 525.712 62.7485C525.726 62.7449 525.736 62.7704 525.777 62.8052C525.872 62.886 525.926 62.9322 525.969 62.9811C525.959 62.9836 525.954 62.9636 526.015 62.9898C526.195 63.0758 526.314 63.1355 526.425 63.199C526.416 63.2027 526.408 63.1853 526.475 63.213C526.725 63.2979 526.909 63.355 527.098 63.408C527.103 63.4038 527.108 63.4165 527.177 63.4542C527.796 63.5387 528.346 63.5855 528.907 63.6207C528.917 63.609 528.945 63.6231 528.955 63.6233C528.964 63.6235 529.001 63.6173 529.099 63.5814C529.336 63.5237 529.474 63.5019 529.659 63.481C529.824 63.4517 529.943 63.4213 530.088 63.3823C530.114 63.3735 530.15 63.4153 530.223 63.3851C530.445 63.2968 530.593 63.2387 530.738 63.1905C530.736 63.2004 530.716 63.1955 530.758 63.1551C530.857 63.061 530.913 63.0072 530.966 62.9671C530.962 62.9806 530.933 62.9726 530.994 62.9424C531.177 62.8538 531.299 62.7954 531.414 62.7536C531.408 62.7702 531.373 62.7579 531.402 62.7124C531.498 62.5804 531.565 62.4939 531.696 62.354C533.661 59.4234 533.203 56.4519 532.108 53.4694C532.028 53.251 531.69 52.9703 531.475 52.972C528.56 52.9963 525.597 52.8878 523.243 55.1334C523.14 55.2746 523.073 55.3705 523.012 55.4798C523.016 55.4932 522.99 55.5064 522.959 55.554C522.873 55.7018 522.819 55.8019 522.771 55.9139C522.776 55.9259 522.752 55.9371 522.682 55.9373C522.346 55.939 522.08 55.9407 521.814 55.9423C516.646 56.2937 513.27 52.9857 513.905 48.0507C514.042 46.9841 514.703 45.9806 515.155 44.8678C512.119 44.391 510.265 42.5653 510.037 39.4328C509.83 36.5897 510.427 34.0126 513.504 32.4207C512.919 32.0105 512.435 31.6718 511.93 31.2267C512.13 31.03 512.35 30.9395 512.62 30.8999C513.654 31.8846 514.95 32.1573 516.192 32.0532C518.526 31.8574 520.524 30.7595 522.36 29.3805C522.877 28.9925 523.103 28.6267 522.78 27.9992C522.225 26.9211 521.785 25.786 521.197 24.7263C519.987 22.5426 518.214 21.2562 515.438 21.6622C515.267 21.7274 515.154 21.774 515.037 21.8278C515.032 21.835 515.017 21.8265 514.962 21.8507C514.802 21.9306 514.696 21.9862 514.542 22.0898C514.301 22.2603 514.109 22.3827 513.859 22.5343C513.683 22.6215 513.565 22.6795 513.448 22.7251C513.448 22.7128 513.473 22.7129 513.444 22.7695C513.352 22.938 513.289 23.05 513.223 23.1578C513.219 23.1537 513.23 23.156 513.191 23.1964C513.103 23.2931 513.053 23.3495 512.964 23.4807C512.883 23.5966 512.843 23.6377 512.798 23.6884C512.792 23.6981 512.769 23.7375 512.747 23.7977C512.667 23.9196 512.608 23.9813 512.509 24.0808C512.417 24.17 512.365 24.2214 512.311 24.2627C512.308 24.2526 512.329 24.2478 512.302 24.3096C512.215 24.4936 512.156 24.6159 512.084 24.7248C512.072 24.7114 512.099 24.6869 512.07 24.7554C511.988 24.9632 511.933 25.1024 511.858 25.3264C511.776 25.5107 511.715 25.6102 511.652 25.7177C511.65 25.7258 511.641 25.7579 511.647 25.7724C511.652 25.7868 511.627 25.806 511.597 25.8738C511.514 26.0813 511.461 26.2209 511.421 26.3829C511.436 26.4051 511.414 26.4529 511.388 26.5109C511.345 26.8144 511.327 27.0599 511.317 27.4005C511.328 27.8133 511.332 28.131 511.333 28.4919C511.353 28.6478 511.375 28.7605 511.415 28.9088C511.434 28.9445 511.436 29.0242 511.404 29.0969C511.206 29.3734 511.04 29.5771 510.874 29.7807ZM534.379 5.14876C532.325 4.25246 530.349 4.7011 528.471 5.59907C525.072 7.22435 524.65 10.8874 527.572 13.2124C529.421 14.684 531.638 15.2911 533.979 15.4691C534.273 15.4914 534.777 15.1584 534.883 14.8821C535.499 13.2763 536.185 11.67 536.54 10.0027C536.949 8.07885 536.349 6.36777 534.379 5.14876ZM516.644 18.5542C516.996 19.8637 517.902 20.6773 519.148 21.2043C521.665 22.2692 524.184 21.8879 526.692 21.1996C526.937 21.1324 527.273 20.75 527.261 20.5304C527.146 18.5347 527.161 16.5025 526.74 14.5616C526.364 12.8257 524.953 11.798 523.066 11.5996C520.452 11.3249 515.589 14.7197 516.644 18.5542ZM547.788 7.56791C548.944 4.52849 547.872 2.10594 544.913 1.46289C543.694 1.19784 542.335 1.17467 541.104 1.38794C537.464 2.01828 536.081 5.34361 538.136 8.30172C539.483 10.239 541.505 11.3124 543.661 12.1694C543.9 12.2645 544.424 12.0974 544.592 11.8856C545.671 10.5252 546.687 9.11845 547.788 7.56791ZM510.921 38.6646C510.931 38.9205 510.931 39.1771 510.951 39.4321C511.247 43.1347 514.638 44.9277 517.954 43.0829C520.07 41.9059 521.337 39.9893 522.358 37.9142C522.445 37.7381 522.401 37.3792 522.267 37.2432C520.674 35.6209 519.039 34.0164 516.768 33.3056C514.353 32.55 512.165 33.6466 511.377 35.994C511.113 36.7811 511.072 37.6379 510.921 38.6646ZM524.133 45.6852C522.368 45.3375 520.609 44.7367 518.838 44.7019C516.243 44.651 514.542 46.5993 514.788 49.0978C514.896 50.1996 515.259 51.3198 515.726 52.3374C516.518 54.0629 517.95 55.1334 519.948 55.207C521.857 55.2774 523.269 54.2167 524.015 52.6748C524.752 51.1502 525.038 49.4244 525.554 47.7964C525.922 46.6387 525.515 45.974 524.133 45.6852ZM557.353 1.88855C556.616 1.61167 555.899 1.25607 555.138 1.07168C552.031 0.319071 549.652 2.14256 549.586 5.24191C549.527 7.98612 550.998 10.0282 552.823 11.8945C553.013 12.0891 553.617 12.1166 553.902 11.9774C555.245 11.3195 556.636 10.6972 557.842 9.84121C561.246 7.4256 561.064 4.12801 557.353 1.88855ZM539.049 10.6136C538.619 10.2222 538.189 9.8309 537.799 9.47615C537.117 11.5582 536.46 13.5621 535.777 15.6474C538.562 15.6596 541.023 14.8412 543.264 13.2049C541.839 12.3397 540.504 11.5291 539.049 10.6136ZM523.894 39.3799C523.686 39.1032 523.479 38.8265 523.326 38.6232C521.936 40.353 520.617 41.9942 519.385 43.5277C521.336 44.0143 523.365 44.5202 525.438 45.0373C525.726 42.9987 524.932 41.2385 523.894 39.3799ZM533.264 16.3312C531.5 15.8585 529.736 15.3857 528.038 14.9306C528.135 16.6798 528.242 18.5753 528.357 20.642C530.669 19.8797 532.364 18.5619 533.753 16.8396C533.795 16.7881 533.55 16.5201 533.264 16.3312ZM530.135 52.0516C530.496 52.0317 530.857 52.0117 531.365 51.9837C530.484 49.5748 528.946 47.9699 526.776 46.8448C526.318 48.8216 525.886 50.6861 525.454 52.55C526.901 52.3946 528.421 52.2312 530.135 52.0516ZM548.43 13.2233C549.635 13.1024 550.841 12.9815 552.087 12.8565C550.875 11.0099 549.815 9.39569 548.829 7.89251C547.763 9.36787 546.627 10.9408 545.383 12.6637C546.397 12.8588 547.312 13.0348 548.43 13.2233ZM521.298 35.0321C521.775 35.465 522.252 35.898 522.804 36.3984C523.821 34.1869 524.005 32.1048 523.396 29.9927C521.556 30.9624 519.83 31.8717 518.176 32.7434C519.137 33.4418 520.158 34.1845 521.298 35.0321ZM526.315 24.6805C526.579 23.8781 526.843 23.0758 527.113 22.2527C524.991 22.4777 523.099 22.6784 521.233 22.8763C522.095 24.5048 522.956 26.1338 523.966 28.0426C524.811 26.8501 525.526 25.8401 526.315 24.6805ZM558.585 15.4719C559.12 15.5595 559.656 15.6472 560.173 15.7318C559.827 13.7808 559.505 11.9692 559.174 10.101C558.41 10.5835 557.649 11.101 556.851 11.5577C556.01 12.039 555.134 12.4622 554.187 12.9554C555.374 14.1979 556.805 14.9515 558.585 15.4719Z" fill="#E9B120"/>
<path d="M576.913 14.0724C578.44 15.2745 579.057 16.9405 579.449 18.7214C579.862 20.595 579.368 22.2587 577.99 23.8083C581.322 24.4811 583.028 26.3958 583.148 29.4894C583.257 32.2995 582.562 34.808 579.62 36.2771C580.129 36.7132 580.569 37.0909 581.027 37.5526C581.045 37.6367 580.999 37.6811 580.934 37.6447C580.384 37.2668 579.898 36.9252 579.393 36.5296C579.08 36.2767 578.789 35.9107 578.494 35.9088C577.384 35.9015 576.274 36.0126 575.111 36.0238C573.77 34.93 572.481 33.8919 571.197 32.8256C571.132 32.7506 571.061 32.7038 570.929 32.6273C570.754 32.4639 570.639 32.3301 570.558 32.1239C570.659 31.7962 570.727 31.541 570.852 31.3317C572.375 32.5811 573.709 33.9977 575.335 34.9408C578.184 36.5924 581.154 35.272 581.916 32.1636C582.164 31.1492 582.251 30.0507 582.155 29.0128C581.834 25.5383 578.48 23.7938 575.382 25.5715C574.117 26.2973 573.142 27.4953 571.923 28.4654C571.587 28.426 571.363 28.3998 571.166 28.3018C572.057 27.2175 572.921 26.2048 573.684 25.3102C571.818 24.7297 569.932 24.1428 568.047 23.4707C568.052 23.1581 568.057 22.9308 568.146 22.7136C570.043 23.199 571.828 23.8755 573.673 24.105C576.917 24.5085 579.078 22.1227 578.557 19.0069C578.278 17.3324 577.521 15.8983 576.431 14.5992C576.628 14.3986 576.771 14.2355 576.913 14.0724Z" fill="#E9B120"/>
<path d="M576.461 47.9726C576.506 48.2601 576.473 48.5886 576.608 48.8285C577.621 50.6223 577.604 52.4234 576.602 54.1838C575.49 56.1395 573.926 57.6337 571.603 58.258C571.534 57.9774 571.503 57.7256 571.535 57.4309C575.925 55.7431 577.514 51.8955 575.334 48.4696C575.755 48.2207 576.109 48.0119 576.462 47.8455C576.461 47.8878 576.461 47.9726 576.461 47.9726Z" fill="#E9B120"/>
<path d="M555.988 66.8518C555.937 66.9354 555.885 67.019 555.726 67.1067C555.435 66.9718 555.251 66.8328 555.089 66.64C555.223 66.4763 555.333 66.3663 555.486 66.2037C555.601 66.0408 555.676 65.9303 555.756 65.7587C555.828 65.5955 555.894 65.4933 555.969 65.3664C555.995 65.2913 556.006 65.2399 556.016 65.0999C556.081 64.3777 556.142 63.7428 556.196 63.0186C556.018 62.5092 555.848 62.089 555.701 61.6568C555.724 61.6447 555.749 61.6891 555.708 61.6471C555.611 61.5478 555.557 61.4905 555.519 61.4399C555.537 61.4467 555.523 61.4799 555.494 61.4281C555.368 61.2527 555.271 61.1291 555.124 60.9569C554.909 60.6842 554.745 60.4601 554.626 60.1726C554.816 59.9603 554.962 59.8116 555.155 59.6851C555.26 59.7509 555.298 59.8067 555.351 59.9161C555.43 60.0123 555.477 60.0657 555.532 60.1198C555.54 60.1218 555.534 60.1357 555.563 60.1805C555.684 60.3292 555.778 60.4332 555.94 60.5462C556.095 60.2578 556.183 59.9603 556.293 59.5949C556.354 59.3893 556.394 59.2516 556.425 59.1249C556.416 59.1358 556.393 59.1191 556.423 59.0255C556.521 58.6262 556.59 58.3205 556.643 57.9472C556.659 57.7449 556.693 57.6103 556.774 57.4233C556.92 57.109 557.018 56.8473 557.121 56.5908C557.125 56.596 557.112 56.5984 557.143 56.5411C557.233 56.3666 557.291 56.2496 557.346 56.1418C557.342 56.1512 557.323 56.1444 557.374 56.1624C557.408 56.8065 557.391 57.4327 557.387 58.1103C557.394 58.2334 557.373 58.3005 557.303 58.4135C557.227 58.7226 557.185 58.9813 557.15 59.3149C557.141 59.4887 557.125 59.5875 557.082 59.7662C557.154 60.5966 557.253 61.3472 557.394 62.1576C557.488 62.4 557.541 62.5826 557.601 62.7921C557.631 62.8753 557.637 62.9328 557.607 62.9931C557.589 62.9949 557.585 62.9588 557.623 62.9973C557.712 63.0879 557.761 63.1404 557.866 63.2422C558.352 63.7406 558.782 64.19 559.166 64.7048C558.969 64.9248 558.819 65.0796 558.669 65.2343C558.669 65.2343 558.698 65.2224 558.66 65.1757C558.345 64.9287 558.069 64.7285 557.792 64.5283C557.739 64.4868 557.685 64.4453 557.549 64.2973C556.478 64.407 556.815 65.2351 556.655 65.8334C556.606 65.95 556.557 66.0667 556.419 66.2876C556.216 66.5451 556.102 66.6985 555.988 66.8518Z" fill="#E9B120"/>
<path d="M555.067 66.6938C555.251 66.8327 555.435 66.9717 555.684 67.1359C553.687 69.947 546.616 69.9388 544.741 66.3459C544.957 66.2264 545.203 66.1711 545.549 66.1293C547.749 68.7753 552.085 69.029 555.067 66.6938Z" fill="#E9B120"/>
<path d="M568.396 58.3166C568.419 58.375 568.443 58.4335 568.465 58.6514C568.512 59.1707 568.56 59.5306 568.608 59.8905C568.62 59.9923 568.632 60.094 568.572 60.2623C568.221 59.8922 567.942 59.4555 567.636 58.9399C567.456 58.3976 567.303 57.9343 567.14 57.4299C567.044 57.2765 566.958 57.1641 566.812 57.0209C566.573 56.7959 566.393 56.6018 566.169 56.3553C565.925 56.1853 565.727 56.0677 565.534 55.9457C565.539 55.9415 565.542 55.9541 565.485 55.9236C565.309 55.8374 565.191 55.7816 565.079 55.7234C565.086 55.721 565.086 55.7346 565.023 55.6916C564.624 55.527 564.289 55.4052 563.951 55.2871C563.947 55.2907 563.945 55.2815 563.919 55.274C563.839 55.254 563.786 55.2466 563.667 55.2416C563.492 55.1805 563.38 55.1224 563.242 55.0574C563.161 55.0393 563.107 55.0333 562.985 55.0348C562.802 54.9817 562.685 54.9265 562.625 54.8164C562.897 54.5974 563.111 54.4334 563.326 54.3027C563.327 54.336 563.258 54.3371 563.314 54.3542C563.559 54.3953 563.747 54.4193 564.011 54.4499C564.356 54.5771 564.626 54.6978 564.93 54.8325C565.058 54.8573 565.152 54.8681 565.28 54.8423C565.315 54.8057 565.394 54.7433 565.4 54.7022C565.338 54.5004 565.269 54.3396 565.168 54.1143C565.113 53.9088 565.09 53.7679 565.065 53.5279C564.879 52.6575 564.696 51.8863 564.483 51.0327C564.447 50.7766 564.44 50.6029 564.479 50.3959C564.772 50.3118 565.019 50.261 565.281 50.2685C565.293 50.3665 565.29 50.4063 565.265 50.5159C565.206 50.7269 565.168 50.8682 565.202 51.0064C565.293 51.2132 565.312 51.4232 565.343 51.7188C565.443 52.0757 565.533 52.3467 565.658 52.6692C565.712 52.8416 565.731 52.9625 565.75 53.1097C565.755 53.1889 565.764 53.2408 565.775 53.2952C565.771 53.2987 565.779 53.2919 565.794 53.36C565.87 53.6043 565.931 53.7804 566.006 53.9797C566.021 54.0029 566.006 54.0556 566.035 54.1283C566.123 54.344 566.182 54.4871 566.23 54.6244C566.217 54.6186 566.229 54.5948 566.257 54.6515C566.346 54.8185 566.406 54.9287 566.511 55.0778C566.606 55.2193 566.656 55.3221 566.732 55.4901C566.816 55.684 566.873 55.8125 566.916 55.9353C566.902 55.9295 566.914 55.9028 566.964 55.9474C567.145 56.1145 567.277 56.237 567.453 56.3738C567.555 56.4174 567.593 56.4624 567.649 56.5731C567.737 56.6882 567.788 56.7535 567.831 56.8255C567.823 56.8321 567.809 56.8166 567.838 56.8067C567.927 56.7985 567.985 56.8087 568.109 56.8439C568.362 56.9886 568.548 57.1169 568.795 57.2735C569.021 57.3562 569.187 57.4106 569.371 57.4594C569.389 57.4538 569.419 57.479 569.462 57.5138C569.552 57.8082 569.598 58.0679 569.644 58.3276C569.601 58.3307 569.559 58.3337 569.407 58.2839C568.996 58.2596 568.696 58.2881 568.396 58.3166Z" fill="#E9B120"/>
<path d="M581.921 38.7764C581.921 38.7764 581.95 38.8217 581.972 38.9044C582.042 39.0642 582.092 39.1414 582.141 39.2186C582.141 39.2186 582.152 39.2219 582.148 39.3274C581.917 41.0364 581.689 42.6399 581.462 44.2434C581.462 44.2434 581.474 44.2662 581.405 44.321C581.155 44.6813 580.975 44.9868 580.794 45.2924C580.794 45.2924 580.803 45.3436 580.719 45.3372C580.453 45.1976 580.272 45.0644 580.116 44.8571C581.294 43.0608 581.978 41.2521 581.264 39.131C581.497 38.9785 581.709 38.8775 581.921 38.7764Z" fill="#E9B120"/>
<path d="M565.543 5.25902C565.383 5.06144 565.195 4.67836 565.067 4.69621C564.197 4.81774 563.338 5.01889 562.477 5.20428C561.99 5.30927 561.476 5.92504 561.026 5.05191C561.299 5.0431 561.678 5.24405 561.877 5.13589C564.21 3.86995 566.396 4.11468 568.46 5.67316C568.003 5.84814 567.523 4.66755 567.055 5.74175C566.497 5.5695 566.02 5.41426 565.543 5.25902Z" fill="#E9B120"/>
<path d="M571.924 13.715C571.956 13.4877 572.037 13.2553 572.012 13.0342C571.958 12.5677 571.849 12.1071 571.797 11.5803C571.804 11.8729 571.776 12.2294 571.767 12.3478C573.323 12.7582 574.784 13.1436 576.211 13.5716C575.784 13.4891 575.392 13.2677 574.999 13.2652C574.578 13.2626 574.156 13.4663 573.634 13.5688C572.996 13.61 572.46 13.6625 571.924 13.715Z" fill="#E9B120"/>
<path d="M512.261 23.0122C512.08 23.4578 511.87 23.9619 511.59 24.4268C510.658 25.9768 510.654 27.6621 510.76 29.4457C509.837 27.0727 510.82 25.021 512.261 23.0122Z" fill="#E9B120"/>
<path d="M540.065 67.9361C540.188 68.1571 540.311 68.3782 540.476 68.6483C539.3 68.5669 538.082 68.4363 536.795 68.2692C536.893 68.1169 537.061 68.0011 537.285 67.8548C537.342 67.8244 537.352 67.8311 537.394 67.8888C537.92 68.452 538.412 68.6367 539.018 67.9674C539.43 67.9492 539.748 67.9427 540.065 67.9361Z" fill="#E9B120"/>
<path d="M564.19 65.8707C564.086 65.9132 563.981 65.9556 563.74 65.9788C562.582 65.2349 563.9 65.4446 564.005 65.1235C564.131 65.1237 564.202 65.148 564.332 65.1375C564.471 65.0543 564.55 65.0058 564.679 64.9181C564.851 64.8453 564.974 64.8117 565.125 64.7721C565.212 64.7501 565.27 64.7372 565.321 64.7406C565.314 64.7538 565.287 64.7402 565.348 64.699C565.53 64.5713 565.651 64.4848 565.805 64.3572C565.954 64.2358 566.07 64.1555 566.254 64.1334C566.369 64.2303 566.416 64.269 566.474 64.3943C566.506 64.5958 566.526 64.7109 566.546 64.8259C566.546 64.8259 566.472 64.8183 566.43 64.8267C566.26 64.9528 566.132 65.0705 566.003 65.1883C566.003 65.1883 565.999 65.1803 565.93 65.1994C565.604 65.3533 565.347 65.4881 565.09 65.623C564.91 65.6939 564.729 65.7647 564.452 65.8312C564.295 65.8238 564.24 65.8384 564.19 65.8707Z" fill="#E9B120"/>
<path d="M521.784 56.0156C522.08 55.9407 522.346 55.939 522.665 56.0191C522.593 56.6346 522.467 57.1683 522.342 57.7021C522.251 57.4123 522.16 57.1224 521.998 56.6048C521.881 57.4223 521.798 58.0073 521.692 58.673C521.697 57.8654 521.726 56.9771 521.784 56.0156Z" fill="#E9B120"/>
<path d="M567.136 64.2087C567.136 64.2087 567.141 64.2638 567.04 64.2825C566.78 64.3034 566.621 64.3056 566.462 64.3078C566.416 64.269 566.369 64.2303 566.283 64.0776C566.421 63.785 566.6 63.6063 566.824 63.368C566.957 63.1897 567.046 63.0711 567.137 62.9694C567.138 62.9863 567.103 62.9899 567.148 62.9257C567.326 62.4722 567.461 62.0829 567.594 61.6137C567.615 61.4295 567.637 61.3253 567.722 61.2543C567.943 61.612 568.1 61.9366 568.258 62.2613C568.258 62.2613 568.272 62.2977 568.232 62.3692C568.136 62.5977 568.08 62.7547 568.023 62.9117C568.023 62.9117 568.032 62.9494 567.961 63.0057C567.727 63.3486 567.565 63.6352 567.402 63.9218C567.402 63.9218 567.359 63.899 567.329 63.9363C567.245 64.0521 567.19 64.1304 567.136 64.2087Z" fill="#E9B120"/>
<path d="M567.137 5.75879C567.523 4.66757 568.003 5.84816 568.504 5.73562C568.58 5.76238 568.533 5.79266 568.558 5.80927C568.639 5.87943 568.695 5.93296 568.751 5.9865C568.751 5.9865 568.732 5.98943 568.79 6.01997C568.929 6.10388 569.01 6.15725 569.09 6.21063C569.09 6.21063 569.149 6.21052 569.201 6.2815C569.315 6.4519 569.377 6.55131 569.44 6.65073C569.44 6.65073 569.414 6.64771 569.458 6.67517C569.555 6.75733 569.61 6.81203 569.664 6.86674C569.664 6.86674 569.652 6.79463 569.673 6.89402C569.657 7.27443 569.62 7.55545 569.522 7.79346C569.054 7.32321 568.647 6.89597 568.203 6.40962C568.114 6.27195 568.063 6.19337 567.966 6.14535C567.92 6.1759 567.842 6.09779 567.842 6.09779C567.842 6.09779 567.923 6.02245 567.836 5.99214C567.576 5.89971 567.402 5.83759 567.204 5.78299C567.178 5.79051 567.137 5.75879 567.137 5.75879Z" fill="#E9B120"/>
<path d="M573.735 13.58C574.156 13.4663 574.578 13.2626 574.999 13.2652C575.392 13.2677 575.784 13.4891 576.264 13.6304C576.453 13.6907 576.554 13.7348 576.716 13.8201C576.777 13.8612 576.749 13.834 576.749 13.834C576.78 13.8711 576.812 13.9082 576.878 14.0089C576.771 14.2355 576.628 14.3986 576.442 14.5667C576.398 14.5718 576.465 14.5928 576.405 14.564C576.226 14.4767 576.106 14.4181 575.997 14.3545C576.007 14.3494 576.017 14.3687 575.957 14.3295C575.816 14.2381 575.736 14.1859 575.6 14.1313C575.458 14.0701 575.371 14.0114 575.218 13.9186C575.016 13.8231 574.879 13.7617 574.715 13.7085C574.688 13.7168 574.639 13.6893 574.597 13.6742C574.437 13.647 574.32 13.6349 574.124 13.6215C573.942 13.6068 573.838 13.5934 573.735 13.58Z" fill="#E9B120"/>
<path d="M563.95 65.1476C563.9 65.4446 562.582 65.2349 563.655 65.9833C562.714 66.0263 561.723 66.0455 560.72 66.0192C561.161 65.7649 561.612 65.5561 562.152 65.3246C562.811 65.2504 563.38 65.199 563.95 65.1476Z" fill="#E9B120"/>
<path d="M568.297 62.1936C568.1 61.9367 567.943 61.6121 567.721 61.154C567.66 60.3532 567.662 59.686 567.663 59.0188C567.942 59.4555 568.221 59.8922 568.555 60.3377C568.518 60.9397 568.427 61.5328 568.297 62.1936Z" fill="#E9B120"/>
<path d="M581.511 44.1872C581.689 42.6399 581.917 41.0364 582.144 39.3316C582.842 40.9632 582.438 42.5735 581.511 44.1872Z" fill="#E9B120"/>
<path d="M580.091 44.9313C580.272 45.0645 580.453 45.1977 580.699 45.355C580.379 45.8139 579.994 46.2487 579.52 46.6964C579.431 46.7093 579.39 46.6789 579.348 46.6239C579.166 46.4436 579.027 46.3182 578.927 46.1317C579.341 45.6907 579.716 45.311 580.091 44.9313Z" fill="#E9B120"/>
<path d="M562.063 65.3473C561.612 65.5561 561.161 65.7649 560.632 65.9963C560.413 65.9884 560.272 65.9579 560.034 65.8873C559.936 65.8472 559.935 65.8405 559.935 65.8405C559.785 65.8051 559.635 65.7697 559.388 65.6859C559.292 65.6374 559.316 65.6625 559.316 65.6625C559.316 65.6625 559.252 65.6275 559.291 65.5646C559.671 65.3864 560.012 65.2712 560.341 65.171C560.33 65.1861 560.299 65.1654 560.387 65.1938C560.918 65.2787 561.36 65.3352 561.839 65.362C561.876 65.3323 561.971 65.3205 561.971 65.3205L562.063 65.3473Z" fill="#E9B120"/>
<path d="M576.551 47.9809C576.461 47.9726 576.461 47.8878 576.544 47.831C577.103 47.4881 577.579 47.2021 578.056 46.8658C578.057 46.8155 578.059 46.7149 578.114 46.6689C578.344 46.5449 578.518 46.4669 578.702 46.4629C578.72 46.5861 578.727 46.6353 578.732 46.6891C578.73 46.6936 578.751 46.7004 578.831 46.6985C579.071 46.6907 579.231 46.6848 579.39 46.6788C579.39 46.6788 579.431 46.7093 579.451 46.7246C578.528 47.1563 577.585 47.5727 576.551 47.9809Z" fill="#E9B120"/>
<path d="M510.889 29.8562C511.04 29.577 511.206 29.3734 511.456 29.1561C511.883 29.7114 512.227 30.2802 512.57 30.849C512.35 30.9395 512.13 31.03 511.885 31.1686C511.541 30.7884 511.223 30.36 510.889 29.8562Z" fill="#E9B120"/>
<path d="M514.938 21.0581C514.168 21.6531 513.321 22.2587 512.413 22.9036C513.188 22.3182 514.025 21.6935 514.938 21.0581Z" fill="#E9B120"/>
<path d="M569.721 58.3486C569.598 58.0679 569.552 57.8082 569.559 57.5103C570 57.4974 570.388 57.5226 570.797 57.6098C570.953 57.8936 571.088 58.1155 571.224 58.3375C570.749 58.3482 570.274 58.3589 569.721 58.3486Z" fill="#E9B120"/>
<path d="M560.139 3.0356C559.407 2.50104 558.648 1.89341 557.845 1.22675C558.571 1.76598 559.341 2.36425 560.139 3.0356Z" fill="#E9B120"/>
<path d="M571.816 10.7463C571.421 9.90123 571.037 8.97153 570.632 7.96057C571.017 8.80679 571.422 9.73427 571.816 10.7463Z" fill="#E9B120"/>
<path d="M581.909 38.7029C581.709 38.8775 581.497 38.9786 581.216 39.0793C580.94 38.761 580.733 38.4432 580.579 38.0877C580.755 37.9271 580.877 37.8041 580.999 37.6811C580.999 37.6811 581.045 37.6367 581.069 37.6146C581.36 37.9381 581.628 38.2838 581.909 38.7029Z" fill="#E9B120"/>
<path d="M571.289 58.3388C571.088 58.1156 570.953 57.8936 570.872 57.5901C571.03 57.5078 571.133 57.5071 571.263 57.5058C571.343 57.5019 571.395 57.4933 571.452 57.4721C571.457 57.4649 571.472 57.4738 571.472 57.4738C571.503 57.7256 571.534 57.9774 571.522 58.2668C571.437 58.3163 571.395 58.3282 571.289 58.3388Z" fill="#E9B120"/>
<path d="M556.699 65.7647C556.815 65.235 556.478 64.407 557.498 64.2106C557.268 64.7191 557.006 65.2076 556.699 65.7647Z" fill="#E9B120"/>
<path d="M569.583 7.83644C569.62 7.55542 569.657 7.27441 569.71 6.88818C570.018 7.11724 570.309 7.45151 570.632 7.85493C570.46 8.06935 570.257 8.21461 570.003 8.37614C569.829 8.20707 569.706 8.02176 569.583 7.83644Z" fill="#E9B120"/>
<path d="M525.464 63.5387C526.086 63.7355 526.76 63.9896 527.49 64.2802C526.87 64.0764 526.193 63.8362 525.464 63.5387Z" fill="#E9B120"/>
<path d="M528.344 64.4518C528.897 64.317 529.54 64.2016 530.267 64.088C529.712 64.2169 529.072 64.344 528.344 64.4518Z" fill="#E9B120"/>
<path d="M560.352 65.156C560.012 65.2712 559.671 65.3864 559.265 65.5398C559.049 65.4969 558.898 65.4158 558.708 65.2845C558.819 65.0795 558.969 64.9247 559.24 64.7312C559.692 64.8469 560.022 65.0015 560.352 65.156Z" fill="#E9B120"/>
<path d="M561.011 4.81006C560.732 4.33222 560.454 3.77104 560.155 3.13171C560.426 3.61128 560.719 4.169 561.011 4.81006Z" fill="#E9B120"/>
<path d="M521.679 58.8732C521.884 59.2371 522.092 59.6785 522.307 60.194C522.103 59.829 521.893 59.3899 521.679 58.8732Z" fill="#E9B120"/>
<path d="M543.823 66.5343C544.009 66.3701 544.258 66.1522 544.544 65.951C544.35 66.1387 544.119 66.3097 543.823 66.5343Z" fill="#E9B120"/>
<path d="M568.623 59.8135C568.56 59.5305 568.512 59.1706 568.472 58.7453C568.534 59.0321 568.585 59.3843 568.623 59.8135Z" fill="#E9B120"/>
<path d="M567.461 63.8793C567.565 63.6352 567.727 63.3487 567.946 63.0189C567.842 63.2627 567.681 63.5498 567.461 63.8793Z" fill="#E9B120"/>
<path d="M557.826 64.5928C558.069 64.7285 558.345 64.9287 558.666 65.1901C558.427 65.0534 558.143 64.8554 557.826 64.5928Z" fill="#E9B120"/>
<path d="M522.509 60.6321C522.71 60.8403 522.926 61.1097 523.16 61.4465C522.96 61.2404 522.742 60.9669 522.509 60.6321Z" fill="#E9B120"/>
<path d="M568.452 58.2674C568.696 58.288 568.996 58.2595 569.345 58.2674C569.099 58.2752 568.803 58.2467 568.452 58.2674Z" fill="#E9B120"/>
<path d="M580.86 45.249C580.975 44.9868 581.155 44.6813 581.393 44.3271C581.276 44.5876 581.101 44.8966 580.86 45.249Z" fill="#E9B120"/>
<path d="M533.641 66.3306C533.839 66.4634 534.071 66.6494 534.338 66.8901C534.141 66.7579 533.908 66.5709 533.641 66.3306Z" fill="#E9B120"/>
<path d="M523.931 62.3865C524.117 62.4888 524.33 62.6519 524.575 62.8759C524.39 62.7736 524.175 62.6104 523.931 62.3865Z" fill="#E9B120"/>
<path d="M541.723 68.3787C541.919 68.2222 542.18 68.0419 542.511 67.8467C542.318 68.0062 542.053 68.1805 541.723 68.3787Z" fill="#E9B120"/>
<path d="M565.166 65.6206C565.347 65.4881 565.604 65.3533 565.933 65.2029C565.751 65.331 565.496 65.4746 565.166 65.6206Z" fill="#E9B120"/>
<path d="M524.69 63.0277C524.894 63.1097 525.141 63.2486 525.445 63.4284C525.246 63.3411 524.99 63.2128 524.69 63.0277Z" fill="#E9B120"/>
<path d="M566.474 64.3943C566.621 64.3056 566.78 64.3034 567.019 64.3008C566.953 64.4566 566.808 64.6128 566.605 64.7974C566.526 64.7108 566.506 64.5958 566.474 64.3943Z" fill="#E9B120"/>
<path d="M541.034 68.615C541.096 68.5684 541.217 68.5134 541.38 68.4609C541.312 68.5111 541.203 68.5589 541.034 68.615Z" fill="#E9B120"/>
<path d="M557.281 0.901004C557.145 0.86479 556.964 0.789795 556.738 0.680725C556.873 0.718507 557.054 0.790366 557.281 0.901004Z" fill="#E9B120"/>
<path d="M534.407 66.9938C534.502 67.0307 534.63 67.1159 534.8 67.2394C534.708 67.1992 534.574 67.1206 534.407 66.9938Z" fill="#E9B120"/>
<path d="M556.053 66.8134C556.102 66.6984 556.216 66.5451 556.378 66.3384C556.323 66.4484 556.22 66.6117 556.053 66.8134Z" fill="#E9B120"/>
<path d="M566.073 65.172C566.131 65.0705 566.26 64.9528 566.433 64.7908C566.367 64.8829 566.255 65.0193 566.073 65.172Z" fill="#E9B120"/>
<path d="M568.06 62.8589C568.08 62.7547 568.136 62.5977 568.22 62.3844C568.197 62.4874 568.147 62.6467 568.06 62.8589Z" fill="#E9B120"/>
<path d="M523.43 61.7261C523.498 61.7682 523.561 61.8775 523.656 62.0418C523.6 61.9956 523.512 61.8945 523.43 61.7261Z" fill="#E9B120"/>
<path d="M536.237 68.0401C536.268 68.0146 536.325 68.0269 536.397 68.067C536.416 68.0783 536.341 68.082 536.341 68.082C536.341 68.082 536.268 68.0613 536.237 68.0401Z" fill="#E9B120"/>
<path d="M542.616 67.8281C542.639 67.7807 542.71 67.722 542.818 67.636C542.792 67.678 542.728 67.7474 542.616 67.8281Z" fill="#E9B120"/>
<path d="M543.092 67.4384C543.111 67.3861 543.179 67.3134 543.282 67.2064C543.258 67.2541 543.199 67.336 543.092 67.4384Z" fill="#E9B120"/>
<path d="M557.734 1.12085C557.672 1.1093 557.564 1.0577 557.404 0.976807C557.464 0.991939 557.576 1.03637 557.734 1.12085Z" fill="#E9B120"/>
<path d="M569.452 6.58629C569.377 6.55124 569.315 6.45182 569.219 6.30365C569.279 6.3439 569.371 6.43292 569.452 6.58629Z" fill="#E9B120"/>
<path d="M564.226 65.877C564.24 65.8384 564.295 65.8237 564.377 65.8287C564.36 65.8639 564.315 65.8814 564.226 65.877Z" fill="#E9B120"/>
<path d="M535.012 67.4278C535.01 67.4449 534.979 67.4176 534.968 67.4172C534.957 67.4167 535.014 67.4107 535.012 67.4278Z" fill="#E9B120"/>
<path d="M576.743 13.85C576.749 13.8341 576.776 13.8609 576.787 13.8615C576.798 13.862 576.738 13.8658 576.743 13.85Z" fill="#E9B120"/>
<path d="M569.659 6.79848C569.61 6.81197 569.555 6.75726 569.459 6.66283C569.497 6.65884 569.576 6.69456 569.659 6.79848Z" fill="#E9B120"/>
<path d="M559.325 65.6423C559.315 65.662 559.292 65.6373 559.283 65.6375C559.274 65.6378 559.336 65.6226 559.325 65.6423Z" fill="#E9B120"/>
<path d="M559.929 65.8456C559.934 65.8407 559.936 65.8471 559.935 65.8438C559.933 65.8405 559.923 65.8504 559.929 65.8456Z" fill="#E9B120"/>
<path d="M567.201 64.1677C567.19 64.1304 567.245 64.052 567.34 63.9148C567.343 63.9462 567.305 64.0364 567.201 64.1677Z" fill="#E9B120"/>
<path d="M569.049 6.14551C569.009 6.15721 568.929 6.10384 568.789 6.0104C568.822 6.00704 568.915 6.04373 569.049 6.14551Z" fill="#E9B120"/>
<path d="M543.731 66.6638C543.725 66.664 543.739 66.6072 543.728 66.5217C543.727 66.5323 543.742 66.5702 543.731 66.6638Z" fill="#E9B120"/>
<path d="M568.742 5.92137C568.695 5.93287 568.639 5.87933 568.541 5.78737C568.576 5.78474 568.655 5.82054 568.742 5.92137Z" fill="#E9B120"/>
<path d="M523.217 61.5059C523.263 61.4951 523.317 61.5494 523.412 61.6433C523.377 61.6455 523.301 61.6082 523.217 61.5059Z" fill="#E9B120"/>
<path d="M523.709 62.1514C523.742 62.1478 523.793 62.1986 523.877 62.2925C523.851 62.29 523.79 62.2467 523.709 62.1514Z" fill="#E9B120"/>
<path d="M582.129 39.1481C582.092 39.1414 582.042 39.0642 581.959 38.9279C581.988 38.9383 582.053 39.0079 582.129 39.1481Z" fill="#E9B120"/>
<path d="M567.703 22.4628C567.788 22.5087 567.874 22.5546 568.011 22.652C568.057 22.9308 568.052 23.158 567.974 23.5317C567.62 26.0369 568.675 27.9847 569.921 30.0647C570.226 29.6461 570.431 29.3648 570.68 29.0444C570.81 28.8746 570.897 28.744 570.995 28.6241C571.006 28.6348 570.984 28.6559 571.024 28.6155C571.118 28.5212 571.171 28.4672 571.193 28.424C571.162 28.4347 571.139 28.3735 571.139 28.3735C571.363 28.3998 571.587 28.426 571.894 28.5251C571.89 28.6989 571.804 28.7999 571.658 28.9437C571.403 29.3226 571.209 29.6586 571.011 29.9865C571.006 29.9784 571.023 29.9697 570.989 30.0255C570.898 30.1988 570.841 30.3162 570.781 30.4265C570.779 30.4194 570.794 30.415 570.752 30.4712C570.658 30.6043 570.605 30.6811 570.58 30.7868C570.628 30.8754 570.61 30.9201 570.59 31.0079C570.683 31.1403 570.738 31.2148 570.787 31.2877C570.781 31.2863 570.794 31.2858 570.794 31.2858C570.726 31.541 570.659 31.7962 570.491 32.1256C570.303 32.2155 570.215 32.2312 570.093 32.3011C569.999 32.5187 569.939 32.682 569.873 32.8413C569.867 32.8372 569.879 32.8469 569.846 32.9082C569.762 33.1002 569.712 33.231 569.662 33.3961C569.663 33.4304 569.63 33.491 569.6 33.5621C569.522 33.7797 569.474 33.9262 569.442 34.0941C569.458 34.1156 569.437 34.1641 569.398 34.239C568.917 36.1011 568.309 37.9192 570.34 39.2356C570.334 39.2283 570.349 39.2176 570.304 39.2515C570.204 39.3363 570.149 39.3871 570.058 39.4885C569.964 39.5996 569.907 39.6602 569.844 39.732C569.838 39.7431 569.842 39.8175 569.862 39.8744C569.883 40.0106 569.885 40.0899 569.911 40.2458C569.995 40.4723 570.055 40.6222 570.128 40.7848C570.141 40.7976 570.118 40.8259 570.132 40.9165C570.211 41.3593 570.276 41.7114 570.282 42.0295C570.025 41.8767 569.828 41.7579 569.618 41.6172C569.605 41.5953 569.629 41.5505 569.603 41.4799C569.514 41.2729 569.452 41.1364 569.347 40.9555C569.194 40.746 569.083 40.581 568.934 40.3506C568.798 39.8667 568.648 39.4522 568.613 39.0288C568.496 37.6285 568.42 36.225 568.329 34.8228C568.347 34.7135 568.364 34.6042 568.46 34.3662C568.784 33.5849 569.035 32.9346 569.272 32.2794C569.763 30.9213 569.606 30.4447 568.392 29.5671C568.392 29.5671 568.439 29.5117 568.428 29.4941C568.366 29.4234 568.313 29.3701 568.261 29.3169C568.261 29.3169 568.274 29.3172 568.255 29.251C568.097 28.9373 567.958 28.6899 567.818 28.4425C567.818 28.4425 567.782 28.4028 567.776 28.2802C567.545 26.7292 567.392 25.284 567.049 23.882C566.943 23.4475 566.324 23.1302 565.939 22.7592C565.939 22.7592 565.956 22.7144 565.919 22.6833C565.801 22.5999 565.721 22.5476 565.64 22.4953C565.64 22.4953 565.595 22.531 565.529 22.4761C565.405 22.3719 565.347 22.3227 565.288 22.2734C565.288 22.2734 565.318 22.2704 565.277 22.2446C565.18 22.1654 565.123 22.112 565.066 22.0585C565.066 22.0585 565.087 22.0554 565.029 22.0362C564.852 21.9589 564.733 21.9006 564.614 21.8424C564.614 21.8424 564.63 21.8373 564.593 21.803C564.499 21.717 564.442 21.6653 564.385 21.6136C564.385 21.6136 564.399 21.6177 564.447 21.5708C564.709 21.4009 564.923 21.278 565.208 21.1749C565.815 21.4041 566.351 21.6135 566.919 21.7434C567.078 20.7591 567.204 19.8542 567.34 18.9535C567.351 18.9577 567.342 18.9776 567.366 18.9016C567.436 18.5611 567.482 18.2967 567.551 18.0462C567.573 18.06 567.544 18.1033 567.573 18.0291C567.667 17.6976 567.733 17.4402 567.805 17.193C567.81 17.2033 567.789 17.2142 567.829 17.1717C567.922 17.0727 567.976 17.0162 567.97 16.9662C567.904 16.9355 567.896 16.8982 567.888 16.8608C567.93 17.3849 568.043 17.9148 567.999 18.4319C567.912 19.4346 567.736 20.43 567.598 21.5264C567.598 21.7223 567.595 21.8203 567.585 22.0291C567.619 22.2475 567.661 22.3552 567.703 22.4628Z" fill="#E9B120"/>
<path d="M550.345 56.0033C550.613 56.2315 550.766 56.5759 551.035 56.7687C552.352 57.7117 553.7 58.6143 555.072 59.597C554.962 59.8115 554.816 59.9602 554.626 60.1725C552.902 59.1857 551.223 58.1353 549.472 57.0539C549.694 56.6984 549.989 56.374 550.345 56.0033Z" fill="#E9B120"/>
<path d="M561 52.0023C560.987 52.0693 560.954 52.1254 560.811 52.2311C560.661 52.3406 560.6 52.3897 560.54 52.4388C560.54 52.4388 560.6 52.4274 560.531 52.4424C560.412 52.4491 560.362 52.4409 560.312 52.4327C560.254 52.3851 560.2 52.3342 560.088 52.1642C560.011 51.9993 559.994 51.9502 559.977 51.9011C559.977 51.9011 560.058 51.9013 560.088 51.8824C560.178 51.7466 560.238 51.6297 560.297 51.5128C560.297 51.5128 560.303 51.5346 560.345 51.4916C560.51 51.3105 560.634 51.1724 560.758 51.0343C560.758 51.0343 560.783 51.0717 560.805 51.0442C560.881 50.9631 560.935 50.9096 560.989 50.8561C560.989 50.8561 560.989 50.8743 561.021 50.8344C561.107 50.7413 561.162 50.6882 561.217 50.635C561.217 50.635 561.217 50.6538 561.249 50.6141C561.336 50.5221 561.391 50.4698 561.447 50.4174C561.447 50.4174 561.447 50.4364 561.478 50.3965C561.564 50.3035 561.619 50.2505 561.674 50.1975C561.674 50.1975 561.629 50.2346 561.683 50.1835C562.016 49.858 562.294 49.5836 562.572 49.3092C562.572 49.3092 562.585 49.3275 562.617 49.2965C562.705 49.2155 562.757 49.1627 562.806 49.107C562.881 49.0388 562.957 48.9706 563.146 48.8608C563.339 48.7664 563.418 48.7137 563.497 48.661C563.497 48.661 563.485 48.6688 563.558 48.6467C563.91 48.3614 564.182 48.0912 564.47 47.8375C564.668 47.6631 564.887 47.5115 565.135 47.4043C565.435 47.4186 565.696 47.3782 566.001 47.3774C566.109 47.6309 566.173 47.8446 566.188 48.109C565.88 48.2725 565.62 48.3854 565.322 48.5471C565.219 48.7019 565.152 48.8078 565.091 48.9075C565.095 48.9012 565.108 48.9103 565.075 48.9602C564.984 49.1153 564.927 49.2205 564.798 49.3279C564.586 49.337 564.444 49.3441 564.303 49.3512C564.25 49.3527 564.196 49.3543 564.017 49.3806C563.831 49.4463 563.774 49.4909 563.721 49.5392C563.721 49.5392 563.717 49.5545 563.653 49.5807C563.48 49.6694 563.372 49.7318 563.263 49.7942C563.263 49.7942 563.291 49.7672 563.246 49.8135C563.072 49.9758 562.941 50.0918 562.811 50.2077C562.811 50.2077 562.812 50.2202 562.75 50.2467C562.578 50.335 562.467 50.3968 562.357 50.4587C562.357 50.4587 562.357 50.4385 562.327 50.4929C562.245 50.6218 562.193 50.6962 562.142 50.7706C562.135 50.818 562.11 50.8537 561.979 50.9227C561.82 51.0179 561.748 51.0679 561.677 51.1179C561.677 51.1179 561.677 51.0976 561.654 51.1469C561.566 51.2957 561.5 51.3951 561.434 51.4945C561.395 51.5601 561.357 51.6257 561.231 51.7635C561.092 51.8883 561.044 51.9439 561 52.0023Z" fill="#E9B120"/>
<path d="M541.818 57.4679C542.741 58.8021 543.561 60.1409 544.386 61.5601C544.2 62.0311 544.009 62.4216 543.797 62.8833C543.502 60.8544 542.322 59.2038 540.923 57.5773C541.163 57.4976 541.439 57.485 541.818 57.4679Z" fill="#E9B120"/>
<path d="M546.818 56.142C545.594 56.1403 544.29 56.1043 542.894 56.0715C544.119 55.4463 545.43 55.6739 546.818 56.142Z" fill="#E9B120"/>
<path d="M561.729 53.8877C562.188 53.9652 562.683 54.0834 563.252 54.2355C563.111 54.4333 562.897 54.5974 562.625 54.8164C562.174 54.7943 561.781 54.7173 561.308 54.6117C561.416 54.3727 562.359 54.7404 561.729 53.8877Z" fill="#E9B120"/>
<path d="M545.197 62.6053C545.264 63.5058 545.279 64.4693 545.304 65.5234C544.65 64.6643 544.697 63.6769 545.197 62.6053Z" fill="#E9B120"/>
<path d="M557.374 56.1624C557.364 56.0265 557.404 55.9086 557.494 55.7492C557.753 55.7353 557.962 55.7629 558.277 55.8068C558.087 56.5289 557.792 57.2347 557.436 57.9997C557.391 57.4327 557.408 56.8065 557.374 56.1624Z" fill="#E9B120"/>
<path d="M527.177 63.4542C527.646 63.4789 528.184 63.5412 528.809 63.6179C528.346 63.5855 527.796 63.5387 527.177 63.4542Z" fill="#E9B120"/>
<path d="M546.956 55.3839C547.299 55.4374 547.701 55.5376 548.168 55.6777C547.826 55.6219 547.42 55.5262 546.956 55.3839Z" fill="#E9B120"/>
<path d="M539.372 55.9293C539.166 55.8601 539.023 55.7541 538.842 55.5923C539.061 55.4561 539.316 55.3758 539.664 55.2593C539.84 55.2895 539.922 55.3558 540.028 55.4684C539.847 55.6407 539.641 55.7666 539.372 55.9293Z" fill="#E9B120"/>
<path d="M554.246 53.361C554.569 53.2661 554.961 53.1881 555.439 53.1146C555.121 53.2054 554.718 53.2916 554.246 53.361Z" fill="#E9B120"/>
<path d="M548.529 55.795C548.793 55.7455 549.103 55.7309 549.502 55.6791C549.253 55.7046 548.914 55.7673 548.529 55.795Z" fill="#E9B120"/>
<path d="M538.317 57.5165C538.022 57.7023 537.644 57.9067 537.186 58.1249C537.482 57.9375 537.858 57.7363 538.317 57.5165Z" fill="#E9B120"/>
<path d="M540.596 55.5659C540.781 55.4868 541.026 55.4218 541.348 55.3529C541.168 55.426 540.912 55.503 540.596 55.5659Z" fill="#E9B120"/>
<path d="M563.039 20.2924C563.163 20.0956 563.286 19.9014 563.462 19.6609C563.515 19.6146 563.504 19.6207 563.483 19.6818C563.323 19.9268 563.183 20.1107 563.043 20.2947C563.043 20.2947 563.038 20.295 563.039 20.2924Z" fill="#E9B120"/>
<path d="M543.681 64.953C543.681 64.6355 543.713 64.2407 543.764 63.7516C543.76 64.0634 543.736 64.4695 543.681 64.953Z" fill="#E9B120"/>
<path d="M550.734 54.8269C550.883 54.699 551.095 54.5565 551.373 54.4064C551.225 54.5366 551.012 54.6744 550.734 54.8269Z" fill="#E9B120"/>
<path d="M560.046 54.3085C559.921 54.3204 559.762 54.2984 559.528 54.2527C559.639 54.2442 559.826 54.2594 560.046 54.3085Z" fill="#E9B120"/>
<path d="M556.881 53.8898C556.796 53.9381 556.696 53.9456 556.52 53.9417C556.586 53.9032 556.726 53.876 556.881 53.8898Z" fill="#E9B120"/>
<path d="M543.11 55.1456C543.42 55.1049 543.805 55.0824 544.285 55.0732C543.982 55.1123 543.583 55.1381 543.11 55.1456Z" fill="#E9B120"/>
<path d="M542.271 56.1159C542.084 56.2055 541.836 56.2791 541.51 56.3545C541.692 56.2708 541.95 56.1854 542.271 56.1159Z" fill="#E9B120"/>
<path d="M545.804 55.2399C545.942 55.2239 546.122 55.2343 546.366 55.2679C546.236 55.2829 546.041 55.2745 545.804 55.2399Z" fill="#E9B120"/>
<path d="M533.018 62.4138C533.05 62.6408 533.053 62.9293 533.044 63.303C533.017 63.0839 533.003 62.7796 533.018 62.4138Z" fill="#E9B120"/>
<path d="M551.602 54.3592C551.748 54.2482 551.972 54.1175 552.272 53.973C552.126 54.0859 551.903 54.2126 551.602 54.3592Z" fill="#E9B120"/>
<path d="M539.895 56.8519C539.749 56.954 539.528 57.0755 539.231 57.2081C539.377 57.1033 539.598 56.9872 539.895 56.8519Z" fill="#E9B120"/>
<path d="M558.894 54.8871C558.842 55.0459 558.74 55.2529 558.58 55.5017C558.629 55.3408 558.736 55.1381 558.894 54.8871Z" fill="#E9B120"/>
<path d="M536.436 57.6519C536.567 57.5455 536.765 57.4151 537.036 57.2736C536.906 57.3842 536.705 57.5061 536.436 57.6519Z" fill="#E9B120"/>
<path d="M559.215 53.0138C559.282 52.8712 559.397 52.6819 559.566 52.4504C559.501 52.5946 559.382 52.7809 559.215 53.0138Z" fill="#E9B120"/>
<path d="M541.126 67.7815C541.276 67.6692 541.503 67.5304 541.808 67.371C541.659 67.4853 541.431 67.6201 541.126 67.7815Z" fill="#E9B120"/>
<path d="M552.292 54.8417C552.17 54.9334 551.995 55.0269 551.743 55.1272C551.857 55.0371 552.048 54.9403 552.292 54.8417Z" fill="#E9B120"/>
<path d="M523.281 60.345C523.409 60.4676 523.565 60.6577 523.743 60.9199C523.613 60.7989 523.461 60.6057 523.281 60.345Z" fill="#E9B120"/>
<path d="M522.545 58.8558C522.623 58.9753 522.7 59.1448 522.781 59.3841C522.704 59.2712 522.624 59.0884 522.545 58.8558Z" fill="#E9B120"/>
<path d="M547.772 57.4101C547.853 57.2822 547.986 57.1113 548.162 56.8977C548.078 57.0257 547.951 57.1964 547.772 57.4101Z" fill="#E9B120"/>
<path d="M511.388 26.5109C511.396 26.6821 511.378 26.9112 511.335 27.2229C511.327 27.0599 511.345 26.8144 511.388 26.5109Z" fill="#E9B120"/>
<path d="M526.475 63.213C526.596 63.2331 526.785 63.2809 527.033 63.3705C526.909 63.355 526.725 63.2979 526.475 63.213Z" fill="#E9B120"/>
<path d="M554.556 54.1238C554.443 54.1638 554.271 54.1957 554.012 54.2218C554.116 54.1826 554.307 54.1492 554.556 54.1238Z" fill="#E9B120"/>
<path d="M553.915 54.2202C553.804 54.2801 553.619 54.3583 553.358 54.444C553.468 54.3805 553.655 54.3095 553.915 54.2202Z" fill="#E9B120"/>
<path d="M547.32 59.0681C547.256 59.1796 547.14 59.3455 546.956 59.5496C547.015 59.4328 547.141 59.2776 547.32 59.0681Z" fill="#E9B120"/>
<path d="M544.677 55.1102C544.789 55.0919 544.955 55.0886 545.202 55.1023C545.099 55.1214 544.915 55.1233 544.677 55.1102Z" fill="#E9B120"/>
<path d="M541.223 56.6533C541.295 56.7067 541.376 56.8 541.482 56.9492C541.416 56.9011 541.325 56.7971 541.223 56.6533Z" fill="#E9B120"/>
<path d="M536.688 67.3768C536.809 67.4016 536.999 67.4579 537.247 67.5569C537.122 67.5359 536.938 67.472 536.688 67.3768Z" fill="#E9B120"/>
<path d="M564.106 5.24847C564 5.28605 563.839 5.31695 563.595 5.34884C563.692 5.31382 563.871 5.27781 564.106 5.24847Z" fill="#E9B120"/>
<path d="M530.994 62.9423C531.048 62.8875 531.162 62.8025 531.348 62.7272C531.299 62.7953 531.177 62.8537 530.994 62.9423Z" fill="#E9B120"/>
<path d="M538.912 57.3026C538.854 57.3466 538.732 57.4148 538.538 57.4882C538.593 57.4379 538.72 57.3823 538.912 57.3026Z" fill="#E9B120"/>
<path d="M545.773 61.2956C545.755 61.3636 545.7 61.4891 545.595 61.6627C545.609 61.5916 545.673 61.4723 545.773 61.2956Z" fill="#E9B120"/>
<path d="M533.465 61.0898C533.454 61.1619 533.411 61.2942 533.318 61.4785C533.323 61.4037 533.378 61.2769 533.465 61.0898Z" fill="#E9B120"/>
<path d="M546.183 60.6099C546.163 60.6663 546.109 60.7718 546.013 60.9198C546.03 60.8613 546.09 60.7601 546.183 60.6099Z" fill="#E9B120"/>
<path d="M533.741 65.212C533.796 65.2629 533.879 65.3728 533.954 65.5521C533.887 65.5047 533.828 65.3879 533.741 65.212Z" fill="#E9B120"/>
<path d="M537.73 57.0037C537.793 56.9539 537.929 56.8712 538.146 56.7732C538.085 56.8289 537.943 56.8998 537.73 57.0037Z" fill="#E9B120"/>
<path d="M543.487 65.5C543.494 65.4214 543.533 65.2811 543.635 65.0971C543.638 65.1817 543.579 65.31 543.487 65.5Z" fill="#E9B120"/>
<path d="M513.444 22.7694C513.43 22.8364 513.387 22.9599 513.285 23.1227C513.289 23.05 513.352 22.938 513.444 22.7694Z" fill="#E9B120"/>
<path d="M547.28 56.3289C547.21 56.3246 547.082 56.2954 546.912 56.2156C546.987 56.2113 547.104 56.2577 547.28 56.3289Z" fill="#E9B120"/>
<path d="M513.859 22.5343C513.808 22.5897 513.699 22.6743 513.519 22.7481C513.565 22.6794 513.683 22.6215 513.859 22.5343Z" fill="#E9B120"/>
<path d="M531.402 62.7124C531.424 62.6593 531.474 62.5607 531.578 62.4348C531.565 62.4939 531.498 62.5804 531.402 62.7124Z" fill="#E9B120"/>
<path d="M530.223 63.3851C530.29 63.3314 530.431 63.2476 530.656 63.1722C530.593 63.2388 530.445 63.2968 530.223 63.3851Z" fill="#E9B120"/>
<path d="M546.422 60.1703C546.407 60.2365 546.363 60.3597 546.265 60.5259C546.272 60.4551 546.333 60.3412 546.422 60.1703Z" fill="#E9B120"/>
<path d="M545.897 59.6285C545.926 59.5592 546.001 59.4332 546.136 59.2637C546.112 59.3374 546.027 59.4546 545.897 59.6285Z" fill="#E9B120"/>
<path d="M512.07 24.7554C512.064 24.8346 512.028 24.9824 511.936 25.1858C511.933 25.1024 511.988 24.9631 512.07 24.7554Z" fill="#E9B120"/>
<path d="M514.962 21.8507C514.915 21.8916 514.813 21.9566 514.651 22.0317C514.696 21.9861 514.802 21.9305 514.962 21.8507Z" fill="#E9B120"/>
<path d="M535.875 58.8232C535.834 58.8663 535.742 58.9372 535.594 59.0205C535.632 58.9722 535.729 58.9116 535.875 58.8232Z" fill="#E9B120"/>
<path d="M511.597 25.8738C511.589 25.9521 511.552 26.0982 511.461 26.3024C511.461 26.2209 511.514 26.0813 511.597 25.8738Z" fill="#E9B120"/>
<path d="M533.907 60.3837C533.887 60.4424 533.835 60.5512 533.736 60.7014C533.75 60.6397 533.812 60.5368 533.907 60.3837Z" fill="#E9B120"/>
<path d="M535.993 57.8827C536.049 57.8351 536.168 57.7584 536.359 57.6833C536.307 57.7411 536.182 57.7973 535.993 57.8827Z" fill="#E9B120"/>
<path d="M511.333 28.4918C511.358 28.542 511.381 28.6354 511.4 28.801C511.375 28.7604 511.353 28.6477 511.333 28.4918Z" fill="#E9B120"/>
<path d="M529.659 63.4811C529.711 63.4522 529.809 63.4242 529.984 63.3937C529.943 63.4214 529.824 63.4517 529.659 63.4811Z" fill="#E9B120"/>
<path d="M515.438 21.6621C515.387 21.7014 515.278 21.7593 515.105 21.8189C515.154 21.774 515.267 21.7273 515.438 21.6621Z" fill="#E9B120"/>
<path d="M546.673 58.7481C546.691 58.6864 546.741 58.5713 546.843 58.4141C546.832 58.4796 546.768 58.5871 546.673 58.7481Z" fill="#E9B120"/>
<path d="M536.616 58.3983C536.562 58.4449 536.445 58.5194 536.258 58.5953C536.31 58.5399 536.432 58.483 536.616 58.3983Z" fill="#E9B120"/>
<path d="M534.891 58.5338C534.938 58.4824 535.042 58.3945 535.211 58.2794C535.167 58.3339 535.058 58.4156 534.891 58.5338Z" fill="#E9B120"/>
<path d="M526.015 62.9898C526.087 63.0018 526.22 63.04 526.394 63.1368C526.314 63.1355 526.195 63.0758 526.015 62.9898Z" fill="#E9B120"/>
<path d="M512.302 24.3096C512.294 24.3841 512.258 24.5204 512.16 24.6974C512.156 24.6159 512.215 24.4937 512.302 24.3096Z" fill="#E9B120"/>
<path d="M522.346 58.0838C522.387 58.1493 522.448 58.2861 522.509 58.4985C522.461 58.4344 522.413 58.2947 522.346 58.0838Z" fill="#E9B120"/>
<path d="M535.567 58.1054C535.619 58.0591 535.731 57.9847 535.911 57.9059C535.862 57.9601 535.745 58.0187 535.567 58.1054Z" fill="#E9B120"/>
<path d="M523.243 55.1334C523.219 55.1881 523.158 55.2881 523.052 55.4272C523.073 55.3705 523.14 55.2746 523.243 55.1334Z" fill="#E9B120"/>
<path d="M538.168 55.0953C538.104 55.0707 537.988 55.0067 537.828 54.892C537.895 54.9128 538.006 54.9843 538.168 55.0953Z" fill="#E9B120"/>
<path d="M560.313 52.505C560.362 52.4409 560.412 52.4491 560.537 52.4713C560.549 52.5908 560.487 52.6963 560.37 52.8345C560.315 52.7707 560.314 52.674 560.313 52.505Z" fill="#E9B120"/>
<path d="M543.029 66.4385C543.036 66.3628 543.072 66.2214 543.165 66.0279C543.167 66.1082 543.112 66.2405 543.029 66.4385Z" fill="#E9B120"/>
<path d="M535.105 66.5162C535.168 66.5355 535.285 66.587 535.446 66.6849C535.38 66.6704 535.269 66.6094 535.105 66.5162Z" fill="#E9B120"/>
<path d="M537.335 67.6588C537.475 67.6349 537.615 67.6637 537.723 67.7468C537.579 67.8112 537.465 67.8211 537.352 67.8311C537.352 67.8311 537.342 67.8243 537.336 67.8207C537.331 67.817 537.334 67.7116 537.335 67.6588Z" fill="#E9B120"/>
<path d="M553.516 53.5392C553.533 53.504 553.578 53.4858 553.666 53.4892C553.652 53.5273 553.598 53.5424 553.516 53.5392Z" fill="#E9B120"/>
<path d="M541.914 67.3461C541.968 67.2944 542.083 67.2124 542.27 67.1356C542.22 67.1991 542.098 67.2575 541.914 67.3461Z" fill="#E9B120"/>
<path d="M539.276 56.3415C539.28 56.2827 539.303 56.1798 539.351 56.0016C539.349 56.05 539.322 56.1736 539.276 56.3415Z" fill="#E9B120"/>
<path d="M550.734 55.7602C550.68 55.813 550.563 55.8929 550.373 55.9665C550.424 55.9025 550.548 55.8448 550.734 55.7602Z" fill="#E9B120"/>
<path d="M522.959 55.554C522.943 55.6104 522.896 55.7145 522.807 55.8603C522.819 55.8019 522.873 55.7017 522.959 55.554Z" fill="#E9B120"/>
<path d="M540.575 67.8737C540.629 67.8481 540.73 67.8237 540.91 67.7972C540.866 67.8217 540.744 67.8483 540.575 67.8737Z" fill="#E9B120"/>
<path d="M525.62 62.7007C525.605 62.6903 525.684 62.7115 525.691 62.7318C525.699 62.7521 525.635 62.7112 525.62 62.7007Z" fill="#E9B120"/>
<path d="M530.758 63.1551C530.758 63.1269 530.8 63.0583 530.906 62.9716C530.913 63.0072 530.857 63.061 530.758 63.1551Z" fill="#E9B120"/>
<path d="M525.777 62.8052C525.807 62.8028 525.877 62.8352 525.963 62.9232C525.926 62.9323 525.872 62.8861 525.777 62.8052Z" fill="#E9B120"/>
<path d="M536.176 58.6118C536.172 58.6359 536.127 58.693 536.026 58.7624C536.025 58.7314 536.08 58.688 536.176 58.6118Z" fill="#E9B120"/>
<path d="M564.996 5.172C565.001 5.17266 564.978 5.19197 564.968 5.18069C564.959 5.1694 564.991 5.17134 564.996 5.172Z" fill="#E9B120"/>
<path d="M533.97 65.6359C534.005 65.6327 534.083 65.6688 534.167 65.7712C534.12 65.7834 534.066 65.7293 533.97 65.6359Z" fill="#E9B120"/>
<path d="M534.21 65.8605C534.243 65.8578 534.336 65.8948 534.469 65.9966C534.43 66.0077 534.35 65.954 534.21 65.8605Z" fill="#E9B120"/>
<path d="M534.873 66.3234C534.898 66.3239 534.965 66.3612 535.057 66.4507C535.026 66.456 534.969 66.4084 534.873 66.3234Z" fill="#E9B120"/>
<path d="M542.812 66.6775C542.809 66.6429 542.845 66.567 542.95 66.4841C542.962 66.5302 542.907 66.5833 542.812 66.6775Z" fill="#E9B120"/>
<path d="M535.556 66.7707C535.582 66.7688 535.654 66.7988 535.76 66.8761C535.731 66.8831 535.667 66.843 535.556 66.7707Z" fill="#E9B120"/>
<path d="M528.955 63.6229C528.945 63.6226 528.985 63.5921 528.993 63.6045C529 63.6169 528.964 63.6231 528.955 63.6229Z" fill="#E9B120"/>
<path d="M542.585 66.8977C542.582 66.864 542.62 66.7896 542.725 66.7072C542.737 66.7518 542.681 66.8044 542.585 66.8977Z" fill="#E9B120"/>
<path d="M542.357 67.1176C542.354 67.0839 542.392 67.0095 542.497 66.9271C542.509 66.9717 542.453 67.0243 542.357 67.1176Z" fill="#E9B120"/>
<path d="M559.156 54.4944C559.155 54.5231 559.111 54.6015 559.005 54.7127C559 54.6784 559.057 54.6112 559.156 54.4944Z" fill="#E9B120"/>
<path d="M560.599 54.4167C560.608 54.4182 560.562 54.4357 560.557 54.4221C560.552 54.4086 560.59 54.4152 560.599 54.4167Z" fill="#E9B120"/>
<path d="M537.73 54.8057C537.703 54.8035 537.617 54.7636 537.483 54.6711C537.513 54.6683 537.592 54.7182 537.73 54.8057Z" fill="#E9B120"/>
<path d="M538.969 54.5491C539.003 54.5576 539.079 54.6239 539.165 54.765C539.12 54.7622 539.066 54.6845 538.969 54.5491Z" fill="#E9B120"/>
<path d="M539.2 54.855C539.238 54.8507 539.318 54.8848 539.405 54.9857C539.354 54.9995 539.299 54.9465 539.2 54.855Z" fill="#E9B120"/>
<path d="M539.431 55.0709C539.469 55.0664 539.55 55.1013 539.634 55.2049C539.583 55.2191 539.528 55.1647 539.431 55.0709Z" fill="#E9B120"/>
<path d="M541.967 55.2765C541.972 55.2768 541.955 55.2849 541.949 55.2825C541.944 55.28 541.962 55.2762 541.967 55.2765Z" fill="#E9B120"/>
<path d="M551.648 55.1017C551.647 55.1276 551.607 55.1941 551.508 55.2827C551.502 55.2506 551.555 55.1965 551.648 55.1017Z" fill="#E9B120"/>
<path d="M538.651 55.4429C538.613 55.4698 538.549 55.4377 538.473 55.3327C538.503 55.3259 538.558 55.3672 538.651 55.4429Z" fill="#E9B120"/>
<path d="M549.863 55.4432C549.877 55.4174 549.952 55.349 550.108 55.2714C550.101 55.3084 550.012 55.3545 549.863 55.4432Z" fill="#E9B120"/>
<path d="M558.471 55.5375C558.475 55.5724 558.439 55.6492 558.336 55.7346C558.324 55.6887 558.378 55.6341 558.471 55.5375Z" fill="#E9B120"/>
<path d="M559.933 51.9267C559.994 51.9502 560.011 51.9993 560.051 52.1226C560.026 52.184 559.977 52.1713 559.855 52.1386C559.8 52.0526 559.835 51.9971 559.933 51.9267Z" fill="#E9B120"/>
<path d="M559.656 52.374C559.654 52.3416 559.69 52.2693 559.789 52.1871C559.799 52.2286 559.746 52.2809 559.656 52.374Z" fill="#E9B120"/>
<path d="M558.075 53.1501C558.051 53.1446 558.15 53.1383 558.196 53.156C558.193 53.1713 558.145 53.1653 558.075 53.1501Z" fill="#E9B120"/>
<path d="M558.849 53.2679C558.852 53.2706 558.841 53.2716 558.84 53.2684C558.839 53.2651 558.845 53.2651 558.849 53.2679Z" fill="#E9B120"/>
<path d="M552.837 53.7505C552.845 53.7394 552.883 53.7261 552.982 53.7111C552.985 53.728 552.927 53.741 552.837 53.7505Z" fill="#E9B120"/>
<path d="M512.509 24.0807C512.51 24.1102 512.471 24.1776 512.373 24.2588C512.365 24.2213 512.417 24.1699 512.509 24.0807Z" fill="#E9B120"/>
<path d="M547.542 58.8421C547.54 58.8678 547.498 58.9327 547.398 59.02C547.394 58.9887 547.448 58.935 547.542 58.8421Z" fill="#E9B120"/>
<path d="M522.816 59.6111C522.844 59.6205 522.911 59.6866 522.998 59.8207C522.964 59.8151 522.909 59.7415 522.816 59.6111Z" fill="#E9B120"/>
<path d="M511.652 25.7177C511.654 25.7097 511.669 25.7528 511.655 25.755C511.641 25.7571 511.65 25.7256 511.652 25.7177Z" fill="#E9B120"/>
<path d="M534.369 59.948C534.365 59.9746 534.315 60.0381 534.206 60.1215C534.205 60.0892 534.264 60.0371 534.369 59.948Z" fill="#E9B120"/>
<path d="M545.576 60.0717C545.575 60.0482 545.608 59.9823 545.689 59.8856C545.696 59.9142 545.654 59.9724 545.576 60.0717Z" fill="#E9B120"/>
<path d="M546.642 59.9468C546.64 59.9749 546.596 60.0409 546.493 60.1223C546.489 60.0868 546.544 60.0358 546.642 59.9468Z" fill="#E9B120"/>
<path d="M534.129 60.1559C534.127 60.1828 534.083 60.2498 533.979 60.3366C533.976 60.3029 534.031 60.2495 534.129 60.1559Z" fill="#E9B120"/>
<path d="M545.329 60.4929C545.329 60.4641 545.368 60.3796 545.467 60.2539C545.474 60.2875 545.421 60.3624 545.329 60.4929Z" fill="#E9B120"/>
<path d="M546.425 58.9651C546.429 58.9333 546.479 58.8645 546.595 58.7875C546.598 58.8288 546.535 58.8785 546.425 58.9651Z" fill="#E9B120"/>
<path d="M523.731 61.0179C523.757 61.0183 523.827 61.0558 523.925 61.1484C523.893 61.1541 523.834 61.1046 523.731 61.0179Z" fill="#E9B120"/>
<path d="M512.797 23.6884C512.803 23.679 512.802 23.7344 512.785 23.7355C512.769 23.7365 512.791 23.6978 512.797 23.6884Z" fill="#E9B120"/>
<path d="M544.451 61.6958C544.451 61.693 544.46 61.7078 544.456 61.7162C544.453 61.7245 544.451 61.6986 544.451 61.6958Z" fill="#E9B120"/>
<path d="M513.191 23.1964C513.191 23.2224 513.152 23.2888 513.059 23.3805C513.053 23.3496 513.103 23.2932 513.191 23.1964Z" fill="#E9B120"/>
<path d="M524.644 61.9017C524.669 61.9033 524.736 61.9442 524.831 62.036C524.801 62.0383 524.743 61.9897 524.644 61.9017Z" fill="#E9B120"/>
<path d="M547.963 56.55C547.93 56.5566 547.84 56.5282 547.709 56.4411C547.748 56.4266 547.826 56.4708 547.963 56.55Z" fill="#E9B120"/>
<path d="M547.137 58.1012C547.141 58.0783 547.185 58.0136 547.282 57.9193C547.282 57.9463 547.23 58.0028 547.137 58.1012Z" fill="#E9B120"/>
<path d="M546.937 58.3228C546.938 58.2984 546.975 58.2344 547.064 58.1448C547.07 58.1748 547.023 58.2294 546.937 58.3228Z" fill="#E9B120"/>
<path d="M548.095 58.1932C548.087 58.2254 548.019 58.3149 547.873 58.444C547.876 58.4059 547.955 58.3282 548.095 58.1932Z" fill="#E9B120"/>
<path d="M534.584 58.7505C534.593 58.7277 534.65 58.6716 534.767 58.5962C534.761 58.6237 534.697 58.6704 534.584 58.7505Z" fill="#E9B120"/>
<path d="M575.129 36.0827C576.274 36.0125 577.384 35.9014 578.494 35.9087C578.789 35.9107 579.08 36.2767 579.394 36.5908C579.414 36.747 579.414 36.7879 579.324 36.8188C578.117 36.7046 576.999 36.62 575.887 36.483C575.594 36.4468 575.321 36.2489 575.039 36.1253C575.039 36.1253 575.095 36.0861 575.129 36.0827Z" fill="#E9B120"/>
<path d="M579.414 36.8288C579.414 36.7879 579.414 36.747 579.413 36.6448C579.898 36.9252 580.384 37.2667 580.934 37.6447C580.877 37.804 580.755 37.927 580.516 38.0562C580.144 37.8562 579.89 37.6501 579.612 37.3823C579.531 37.1568 579.473 36.9928 579.414 36.8288Z" fill="#E9B120"/>
<path d="M571.197 32.8256C571.124 32.8372 571.07 32.801 571.01 32.701C571.061 32.7038 571.132 32.7506 571.197 32.8256Z" fill="#E9B120"/>
<path d="M572.691 47.1453C572.616 47.1527 572.541 47.1602 572.369 47.1324C572.155 47.0946 572.036 47.092 571.918 47.0894C571.812 47.0742 571.706 47.059 571.543 46.9486C571.553 46.6521 571.619 46.4507 571.742 46.2374C571.899 46.1751 571.999 46.1248 572.171 46.051C572.551 46.0089 572.859 45.9902 573.148 46.0106C573.13 46.0497 573.049 46.0143 573.108 46.0427C573.283 46.132 573.4 46.1929 573.511 46.2571C573.506 46.2603 573.506 46.2482 573.552 46.2858C573.663 46.3684 573.728 46.4135 573.863 46.4752C574.18 46.6259 574.428 46.76 574.736 46.947C575.586 47.0332 576.375 47.0665 577.151 47.1202C577.139 47.1406 577.097 47.1175 577.161 47.0971C577.349 47.027 577.474 46.9772 577.601 46.9209C577.603 46.9144 577.615 46.9225 577.689 46.9224C577.86 46.9202 577.958 46.9181 578.056 46.9161C577.579 47.2021 577.103 47.4882 576.545 47.7886C576.109 48.0119 575.755 48.2207 575.334 48.4696C575.266 48.5096 575.279 48.4655 575.26 48.4326C575.186 48.3471 575.131 48.2946 575.076 48.242C575.076 48.242 575.094 48.2395 575.036 48.2086C574.898 48.1251 574.819 48.0725 574.739 48.0199C574.739 48.0199 574.698 48.0553 574.632 48.0028C574.509 47.8999 574.452 47.8496 574.395 47.7992C574.395 47.7992 574.445 47.8331 574.37 47.7994C573.948 47.6348 573.602 47.5039 573.255 47.373C573.255 47.373 573.273 47.3593 573.206 47.3358C572.989 47.2567 572.84 47.201 572.691 47.1453Z" fill="#E9B120"/>
<path d="M557.082 59.7662C557.192 60.4284 557.274 61.1705 557.354 62.0052C557.253 61.3472 557.154 60.5966 557.082 59.7662Z" fill="#E9B120"/>
<path d="M556.196 63.0186C556.025 62.6877 555.846 62.2676 555.673 61.7581C555.848 62.089 556.018 62.5092 556.196 63.0186Z" fill="#E9B120"/>
<path d="M557.303 58.4135C557.296 58.6107 557.255 58.8583 557.179 59.173C557.185 58.9813 557.227 58.7225 557.303 58.4135Z" fill="#E9B120"/>
<path d="M556.774 57.4232C556.823 57.2128 556.92 56.9498 557.067 56.6362C557.018 56.8473 556.92 57.109 556.774 57.4232Z" fill="#E9B120"/>
<path d="M556.423 59.0254C556.438 58.7976 556.483 58.4761 556.594 58.0847C556.59 58.3205 556.521 58.6261 556.423 59.0254Z" fill="#E9B120"/>
<path d="M555.563 60.1804C555.633 60.2376 555.732 60.3395 555.851 60.4893C555.778 60.4331 555.684 60.3292 555.563 60.1804Z" fill="#E9B120"/>
<path d="M555.494 61.428C555.423 61.3576 555.323 61.2354 555.199 61.0594C555.271 61.1291 555.368 61.2527 555.494 61.428Z" fill="#E9B120"/>
<path d="M557.143 56.541C557.156 56.4723 557.199 56.3462 557.296 56.1763C557.291 56.2495 557.233 56.3666 557.143 56.541Z" fill="#E9B120"/>
<path d="M556.293 59.5949C556.287 59.5146 556.303 59.3664 556.376 59.1661C556.394 59.2516 556.354 59.3893 556.293 59.5949Z" fill="#E9B120"/>
<path d="M555.486 66.2037C555.514 66.142 555.583 66.0279 555.702 65.8668C555.676 65.9302 555.601 66.0407 555.486 66.2037Z" fill="#E9B120"/>
<path d="M557.601 62.7921C557.613 62.8004 557.631 62.8357 557.638 62.9311C557.637 62.9327 557.631 62.8753 557.601 62.7921Z" fill="#E9B120"/>
<path d="M557.623 62.9972C557.65 62.9981 557.716 63.0375 557.796 63.135C557.761 63.1403 557.712 63.0878 557.623 62.9972Z" fill="#E9B120"/>
<path d="M555.969 65.3664C555.959 65.3911 555.97 65.2852 555.991 65.2362C556.006 65.2398 555.995 65.2913 555.969 65.3664Z" fill="#E9B120"/>
<path d="M555.351 59.9161C555.377 59.9195 555.437 59.9644 555.511 60.0635C555.477 60.0656 555.43 60.0122 555.351 59.9161Z" fill="#E9B120"/>
<path d="M555.708 61.647C555.676 61.6477 555.604 61.6064 555.516 61.4991C555.557 61.4904 555.611 61.5477 555.708 61.647Z" fill="#E9B120"/>
<path d="M565.147 49.3152C565.191 49.5629 565.236 49.8106 565.273 50.1343C565.019 50.261 564.772 50.3117 564.479 50.3958C564.393 50.12 564.353 49.8109 564.308 49.4264C564.444 49.3441 564.586 49.337 564.867 49.3255C565.054 49.3191 565.1 49.3171 565.147 49.3152Z" fill="#E9B120"/>
<path d="M565.065 53.5278C564.884 52.8446 564.701 52.0622 564.516 51.1974C564.696 51.8862 564.879 52.6574 565.065 53.5278Z" fill="#E9B120"/>
<path d="M565.023 55.6916C564.75 55.6123 564.414 55.4901 564.016 55.3257C564.289 55.4052 564.624 55.5269 565.023 55.6916Z" fill="#E9B120"/>
<path d="M566.169 56.3554C566.016 56.2899 565.817 56.1722 565.574 56.0022C565.727 56.0677 565.925 56.1853 566.169 56.3554Z" fill="#E9B120"/>
<path d="M565.4 54.7022C565.335 54.5955 565.277 54.4478 565.21 54.2394C565.269 54.3396 565.338 54.5003 565.4 54.7022Z" fill="#E9B120"/>
<path d="M565.343 51.7188C565.424 51.903 565.517 52.1729 565.616 52.5303C565.533 52.3467 565.443 52.0756 565.343 51.7188Z" fill="#E9B120"/>
<path d="M563.314 54.3541C563.43 54.3524 563.602 54.3677 563.855 54.4132C563.747 54.4193 563.559 54.3953 563.314 54.3541Z" fill="#E9B120"/>
<path d="M568.795 57.2734C568.905 57.2939 569.077 57.3426 569.3 57.4281C569.187 57.4106 569.021 57.3561 568.795 57.2734Z" fill="#E9B120"/>
<path d="M567.14 57.4299C567.072 57.3712 566.993 57.2713 566.893 57.1116C566.958 57.1641 567.044 57.2764 567.14 57.4299Z" fill="#E9B120"/>
<path d="M566.964 55.9474C567.06 56.0121 567.207 56.1215 567.381 56.2952C567.277 56.237 567.145 56.1145 566.964 55.9474Z" fill="#E9B120"/>
<path d="M565.794 53.36C565.849 53.4661 565.92 53.6403 565.991 53.8855C565.931 53.7804 565.87 53.6043 565.794 53.36Z" fill="#E9B120"/>
<path d="M564.93 54.8324C564.976 54.8259 565.055 54.8335 565.19 54.8599C565.152 54.868 565.058 54.8572 564.93 54.8324Z" fill="#E9B120"/>
<path d="M566.257 54.6514C566.303 54.7002 566.377 54.8057 566.459 54.9751C566.406 54.9287 566.346 54.8184 566.257 54.6514Z" fill="#E9B120"/>
<path d="M566.035 54.1282C566.081 54.1943 566.156 54.333 566.237 54.5509C566.182 54.487 566.123 54.344 566.035 54.1282Z" fill="#E9B120"/>
<path d="M565.265 50.5158C565.283 50.6058 565.279 50.7656 565.203 50.9674C565.168 50.8682 565.206 50.7269 565.265 50.5158Z" fill="#E9B120"/>
<path d="M565.485 55.9236C565.416 55.9114 565.289 55.8688 565.117 55.776C565.191 55.7816 565.309 55.8374 565.485 55.9236Z" fill="#E9B120"/>
<path d="M566.732 55.4901C566.786 55.5478 566.865 55.6709 566.937 55.8675C566.873 55.8124 566.816 55.6839 566.732 55.4901Z" fill="#E9B120"/>
<path d="M563.242 55.0574C563.269 55.0641 563.157 55.0651 563.105 55.0489C563.107 55.0333 563.161 55.0392 563.242 55.0574Z" fill="#E9B120"/>
<path d="M563.919 55.274C563.945 55.2814 563.834 55.2825 563.783 55.2635C563.786 55.2466 563.839 55.2539 563.919 55.274Z" fill="#E9B120"/>
<path d="M565.75 53.1097C565.75 53.0834 565.784 53.1849 565.782 53.2383C565.764 53.2407 565.755 53.1888 565.75 53.1097Z" fill="#E9B120"/>
<path d="M567.649 56.5731C567.682 56.5779 567.752 56.6324 567.831 56.7529C567.788 56.7535 567.737 56.6881 567.649 56.5731Z" fill="#E9B120"/>
<path d="M567.838 56.8067C567.849 56.8048 567.888 56.7929 567.985 56.8043C567.985 56.8087 567.927 56.7985 567.838 56.8067Z" fill="#E9B120"/>
<path d="M537.394 67.8887C537.465 67.8211 537.579 67.8112 537.777 67.7938C537.862 67.7864 537.944 67.7855 538.024 67.8162C538.224 67.8553 538.344 67.8637 538.464 67.8722C538.569 67.8862 538.674 67.9003 538.851 67.9466C538.412 68.6367 537.92 68.452 537.394 67.8887Z" fill="#E9B120"/>
<path d="M565.348 64.699C565.401 64.6454 565.515 64.5507 565.7 64.4271C565.651 64.4848 565.53 64.5713 565.348 64.699Z" fill="#E9B120"/>
<path d="M564.332 65.1376C564.341 65.1074 564.41 65.0425 564.554 64.9675C564.55 65.0059 564.471 65.0543 564.332 65.1376Z" fill="#E9B120"/>
<path d="M565.125 64.7722C565.133 64.7625 565.17 64.7467 565.268 64.7291C565.27 64.7372 565.212 64.7502 565.125 64.7722Z" fill="#E9B120"/>
<path d="M567.148 62.9257C567.241 62.6007 567.379 62.2114 567.556 61.7579C567.461 62.0829 567.326 62.4722 567.148 62.9257Z" fill="#E9B120"/>
<path d="M566.824 63.368C566.852 63.2937 566.925 63.1599 567.066 62.9892C567.046 63.0711 566.957 63.1897 566.824 63.368Z" fill="#E9B120"/>
<path d="M567.836 5.99206C567.737 5.98716 567.551 5.95194 567.297 5.84606C567.402 5.83752 567.576 5.89963 567.836 5.99206Z" fill="#E9B120"/>
<path d="M568.203 6.40955C568.161 6.40245 568.082 6.33625 568.008 6.19238C568.063 6.1933 568.114 6.27188 568.203 6.40955Z" fill="#E9B120"/>
<path d="M576.405 14.5639C576.333 14.5532 576.202 14.5137 576.028 14.4169C576.106 14.4181 576.226 14.4766 576.405 14.5639Z" fill="#E9B120"/>
<path d="M575.218 13.9186C575.14 13.9049 574.996 13.8571 574.797 13.7548C574.879 13.7617 575.016 13.8231 575.218 13.9186Z" fill="#E9B120"/>
<path d="M574.597 13.6742C574.54 13.6832 574.441 13.6772 574.272 13.647C574.32 13.6349 574.437 13.647 574.597 13.6742Z" fill="#E9B120"/>
<path d="M575.957 14.3294C575.929 14.3274 575.84 14.2861 575.703 14.1892C575.736 14.1859 575.816 14.238 575.957 14.3294Z" fill="#E9B120"/>
<path d="M578.735 46.6846C578.727 46.6354 578.72 46.5861 578.702 46.4629C578.692 46.3889 578.741 46.4208 578.766 46.4051C578.849 46.3381 578.906 46.2869 578.963 46.2357C578.963 46.2357 578.903 46.2509 578.895 46.2219C579.027 46.3182 579.166 46.4436 579.348 46.6239C579.231 46.6848 579.071 46.6907 578.827 46.6948C578.742 46.6929 578.735 46.6846 578.735 46.6846Z" fill="#E9B120"/>
<path d="M560.387 65.1938C560.742 65.2146 561.186 65.2637 561.716 65.3523C561.36 65.3352 560.918 65.2788 560.387 65.1938Z" fill="#E9B120"/>
<path d="M577.689 46.9224C577.721 46.8583 577.827 46.7941 577.996 46.7224C578.059 46.7149 578.057 46.8156 578.056 46.8658C577.958 46.9181 577.86 46.9202 577.689 46.9224Z" fill="#E9B120"/>
<path d="M578.747 46.6965C578.751 46.7002 578.73 46.6935 578.732 46.6891C578.735 46.6847 578.742 46.6928 578.747 46.6965Z" fill="#E9B120"/>
<path d="M571.263 57.5059C571.236 57.5064 571.339 57.4766 571.393 57.478C571.395 57.4933 571.343 57.502 571.263 57.5059Z" fill="#E9B120"/>
<path d="M565.993 42.2833C566.012 42.2429 566.031 42.2025 566.166 42.0962C566.488 41.7478 566.693 41.4653 566.898 41.1828C566.898 41.1828 566.907 41.1937 566.942 41.157C567.03 41.0664 567.082 41.0124 567.135 40.9584C567.135 40.9584 567.135 40.9758 567.169 40.9395C567.258 40.8535 567.31 40.8006 567.359 40.7447C567.359 40.7447 567.363 40.7566 567.399 40.7222C567.49 40.6429 567.542 40.595 567.591 40.5441C567.591 40.5441 567.591 40.5342 567.654 40.5398C567.907 40.6974 568.097 40.8495 568.258 41.0696C567.265 42.8549 566.302 44.5721 565.293 46.3121C565.008 46.068 564.768 45.8012 564.528 45.5344C564.528 45.5344 564.541 45.4617 564.602 45.363C564.731 45.0118 564.797 44.7594 564.864 44.507C564.864 44.507 564.857 44.5003 564.891 44.4402C564.974 44.259 565.023 44.1378 565.072 44.0167C565.072 44.0167 565.071 44.0508 565.117 44.0023C565.358 43.5374 565.552 43.1209 565.746 42.7044C565.746 42.7044 565.77 42.7201 565.795 42.6765C565.879 42.5164 565.936 42.3998 565.993 42.2833Z" fill="#E9B120"/>
<path d="M568.288 41.0015C568.097 40.8495 567.907 40.6975 567.658 40.5423C568.328 39.9971 568.412 39.3224 568.304 38.4538C568.162 37.3186 568.278 36.1533 568.306 34.9119C568.42 36.2251 568.496 37.6285 568.613 39.0288C568.648 39.4522 568.798 39.8667 568.892 40.3988C568.688 40.6754 568.488 40.8385 568.288 41.0015Z" fill="#E9B120"/>
<path d="M565.994 22.8213C566.324 23.1301 566.943 23.4474 567.049 23.882C567.392 25.284 567.545 26.7291 567.779 28.2541C567.485 27.1609 567.22 25.9609 566.867 24.7858C566.67 24.1303 566.326 23.5162 565.994 22.8213Z" fill="#E9B120"/>
<path d="M568.419 29.6429C569.606 30.4447 569.763 30.9213 569.272 32.2793C569.035 32.9345 568.784 33.5849 568.5 34.2923C568.569 33.8152 568.561 33.227 568.805 32.7622C569.395 31.6367 569.365 30.6455 568.419 29.6429Z" fill="#E9B120"/>
<path d="M564.489 45.611C564.768 45.8013 565.008 46.0681 565.295 46.3906C565.26 46.7474 565.178 47.0485 565.097 47.3497C564.887 47.5115 564.667 47.6631 564.47 47.8375C564.182 48.0912 563.91 48.3614 563.558 48.64C564.247 48.3157 564.199 47.6432 564.242 46.9898C564.271 46.5533 564.378 46.1215 564.489 45.611Z" fill="#E9B120"/>
<path d="M563.07 20.3624C563.183 20.1107 563.323 19.9268 563.488 19.6779C564.027 20.0856 564.54 20.5584 565.095 21.0932C564.923 21.278 564.709 21.4009 564.443 21.5768C563.96 21.2299 563.528 20.83 563.07 20.3624Z" fill="#E9B120"/>
<path d="M565.683 42.7491C565.552 43.1209 565.358 43.5374 565.1 44.0011C565.23 43.6302 565.425 43.212 565.683 42.7491Z" fill="#E9B120"/>
<path d="M562.504 49.3394C562.294 49.5836 562.016 49.858 561.664 50.1617C561.872 49.9173 562.154 49.6435 562.504 49.3394Z" fill="#E9B120"/>
<path d="M566.838 41.2155C566.693 41.4653 566.488 41.7478 566.22 42.0545C566.364 41.8017 566.572 41.5249 566.838 41.2155Z" fill="#E9B120"/>
<path d="M567.823 28.5143C567.958 28.6899 568.097 28.9373 568.251 29.2558C568.12 29.08 567.974 28.8331 567.823 28.5143Z" fill="#E9B120"/>
<path d="M564.82 44.5734C564.797 44.7595 564.731 45.0119 564.629 45.3366C564.654 45.1525 564.715 44.8961 564.82 44.5734Z" fill="#E9B120"/>
<path d="M560.69 51.0609C560.634 51.1724 560.51 51.3105 560.334 51.4943C560.394 51.3892 560.508 51.2384 560.69 51.0609Z" fill="#E9B120"/>
<path d="M564.647 21.9066C564.733 21.9006 564.852 21.9588 565.031 22.0461C564.954 22.0404 564.817 22.0056 564.647 21.9066Z" fill="#E9B120"/>
<path d="M565.942 42.3282C565.936 42.3999 565.879 42.5164 565.787 42.6882C565.799 42.62 565.845 42.4965 565.942 42.3282Z" fill="#E9B120"/>
<path d="M565.016 44.0602C565.023 44.1379 564.974 44.259 564.896 44.4383C564.898 44.3655 564.929 44.2346 565.016 44.0602Z" fill="#E9B120"/>
<path d="M560.234 51.5502C560.238 51.6298 560.178 51.7466 560.088 51.9216C560.095 51.8489 560.133 51.7182 560.234 51.5502Z" fill="#E9B120"/>
<path d="M565.313 22.3286C565.347 22.3227 565.405 22.3719 565.505 22.4609C565.476 22.4617 565.407 22.4227 565.313 22.3286Z" fill="#E9B120"/>
<path d="M565.078 22.1215C565.123 22.112 565.18 22.1654 565.279 22.2589C565.244 22.2608 565.167 22.2227 565.078 22.1215Z" fill="#E9B120"/>
<path d="M564.411 21.6671C564.442 21.6653 564.499 21.717 564.595 21.8105C564.569 21.8084 564.502 21.7645 564.411 21.6671Z" fill="#E9B120"/>
<path d="M567.078 40.9803C567.082 41.0124 567.03 41.0664 566.935 41.1577C566.936 41.1307 566.979 41.0665 567.078 40.9803Z" fill="#E9B120"/>
<path d="M561.608 50.2081C561.619 50.2505 561.564 50.3035 561.468 50.3964C561.466 50.3637 561.504 50.2912 561.608 50.2081Z" fill="#E9B120"/>
<path d="M560.923 50.8648C560.935 50.9096 560.881 50.9631 560.786 51.0565C560.782 51.0221 560.819 50.9478 560.923 50.8648Z" fill="#E9B120"/>
<path d="M561.38 50.4269C561.391 50.4698 561.336 50.5221 561.239 50.6142C561.236 50.5813 561.275 50.5088 561.38 50.4269Z" fill="#E9B120"/>
<path d="M567.304 40.7668C567.31 40.8006 567.258 40.8535 567.16 40.9398C567.161 40.9138 567.205 40.8514 567.304 40.7668Z" fill="#E9B120"/>
<path d="M562.749 49.1269C562.757 49.1626 562.705 49.2155 562.608 49.3024C562.608 49.2752 562.65 49.211 562.749 49.1269Z" fill="#E9B120"/>
<path d="M563.425 48.6797C563.418 48.7137 563.339 48.7664 563.2 48.8568C563.21 48.8291 563.281 48.7638 563.425 48.6797Z" fill="#E9B120"/>
<path d="M567.536 40.5596C567.542 40.5951 567.49 40.643 567.393 40.7202C567.394 40.6934 567.438 40.6342 567.536 40.5596Z" fill="#E9B120"/>
<path d="M565.678 22.5614C565.721 22.5476 565.801 22.5999 565.942 22.6914C565.907 22.6962 565.812 22.6619 565.678 22.5614Z" fill="#E9B120"/>
<path d="M568.276 29.3771C568.313 29.3701 568.366 29.4233 568.457 29.5166C568.428 29.5168 568.36 29.4771 568.276 29.3771Z" fill="#E9B120"/>
<path d="M561.149 50.6422C561.162 50.6882 561.107 50.7413 561.011 50.8344C561.007 50.7993 561.044 50.7243 561.149 50.6422Z" fill="#E9B120"/>
<path d="M567.702 22.4104C567.661 22.3551 567.619 22.2475 567.585 22.1025C567.629 22.1629 567.665 22.2605 567.702 22.4104Z" fill="#E9B120"/>
<path d="M538.391 67.8512C538.344 67.8637 538.224 67.8553 538.061 67.8333C538.118 67.8232 538.219 67.8267 538.391 67.8512Z" fill="#E9B120"/>
<path d="M579.612 37.3823C576.698 36.1627 574.052 36.9468 571.519 38.5157C571.17 38.7317 570.834 38.9667 570.419 39.2179C568.309 37.9192 568.917 36.101 569.398 34.2389C569.437 35.5985 569.437 37.033 569.437 38.4324C571.336 37.6251 573.105 36.8734 574.957 36.1235C575.321 36.2489 575.594 36.4468 575.887 36.483C576.999 36.62 578.117 36.7046 579.324 36.8188C579.473 36.9927 579.531 37.1567 579.612 37.3823Z" fill="#E9B120"/>
<path d="M571.152 44.7781C570.648 43.7864 570.143 42.7947 569.635 41.7211C569.828 41.758 570.025 41.8767 570.354 42.0148C570.534 42.0239 570.582 42.0136 570.63 42.0033C570.63 42.0033 570.619 42.0128 570.622 42.0893C570.839 42.5665 571.054 42.9673 571.269 43.368C571.559 43.8326 571.849 44.2973 572.142 44.8442C572.146 44.9264 572.1 44.9495 572.059 44.9102C571.765 44.8169 571.512 44.7629 571.232 44.7261C571.205 44.7434 571.152 44.7781 571.152 44.7781Z" fill="#E9B120"/>
<path d="M566.919 21.7434C566.992 20.9047 567.097 19.9864 567.267 19.0087C567.204 19.8542 567.078 20.7591 566.919 21.7434Z" fill="#E9B120"/>
<path d="M571.658 28.9437C571.523 29.235 571.327 29.5691 571.074 29.949C571.209 29.6587 571.403 29.3226 571.658 28.9437Z" fill="#E9B120"/>
<path d="M570.613 41.9254C570.582 42.0136 570.534 42.0239 570.414 42.0489C570.276 41.7115 570.211 41.3593 570.132 40.9166C570.278 41.1665 570.437 41.507 570.613 41.9254Z" fill="#E9B120"/>
<path d="M567.573 18.0292C567.594 17.839 567.644 17.5746 567.746 17.2465C567.733 17.4402 567.667 17.6976 567.573 18.0292Z" fill="#E9B120"/>
<path d="M567.366 18.9016C567.367 18.7058 567.393 18.434 567.473 18.0972C567.482 18.2967 567.436 18.5611 567.366 18.9016Z" fill="#E9B120"/>
<path d="M570.68 29.0444C570.716 28.9467 570.795 28.8099 570.93 28.6432C570.897 28.744 570.81 28.8746 570.68 29.0444Z" fill="#E9B120"/>
<path d="M570.093 32.3011C570.077 32.4142 570.027 32.5815 569.928 32.7971C569.939 32.682 569.999 32.5187 570.093 32.3011Z" fill="#E9B120"/>
<path d="M569.846 32.9081C569.84 32.9827 569.8 33.1185 569.711 33.308C569.712 33.231 569.762 33.1002 569.846 32.9081Z" fill="#E9B120"/>
<path d="M570.989 30.0255C570.978 30.0942 570.932 30.2187 570.835 30.3884C570.841 30.3162 570.898 30.1988 570.989 30.0255Z" fill="#E9B120"/>
<path d="M569.6 33.5621C569.601 33.6461 569.571 33.8013 569.484 34.0145C569.474 33.9261 569.522 33.7797 569.6 33.5621Z" fill="#E9B120"/>
<path d="M569.911 40.2458C569.96 40.3143 570.034 40.4595 570.111 40.6883C570.055 40.6222 569.995 40.4723 569.911 40.2458Z" fill="#E9B120"/>
<path d="M569.603 41.4799C569.553 41.4182 569.477 41.2859 569.395 41.0768C569.452 41.1365 569.514 41.2729 569.603 41.4799Z" fill="#E9B120"/>
<path d="M567.829 17.1717C567.823 17.1318 567.856 17.0494 567.959 16.9633C567.976 17.0161 567.922 17.0726 567.829 17.1717Z" fill="#E9B120"/>
<path d="M570.752 30.4713C570.754 30.5019 570.715 30.5888 570.614 30.7168C570.605 30.6811 570.658 30.6043 570.752 30.4713Z" fill="#E9B120"/>
<path d="M569.844 39.732C569.85 39.721 569.86 39.7705 569.851 39.7932C569.842 39.8158 569.838 39.7429 569.844 39.732Z" fill="#E9B120"/>
<path d="M570.304 39.2515C570.303 39.2799 570.256 39.3422 570.152 39.4213C570.149 39.3872 570.204 39.3363 570.304 39.2515Z" fill="#E9B120"/>
<path d="M570.59 31.0079C570.621 31.0163 570.689 31.0829 570.775 31.2193C570.738 31.2148 570.683 31.1404 570.59 31.0079Z" fill="#E9B120"/>
<path d="M571.024 28.6155C571.021 28.5816 571.058 28.5073 571.16 28.4232C571.171 28.4672 571.118 28.5212 571.024 28.6155Z" fill="#E9B120"/>
<path d="M562.876 50.1871C562.941 50.0918 563.072 49.9758 563.26 49.8267C563.192 49.9179 563.066 50.0422 562.876 50.1871Z" fill="#E9B120"/>
<path d="M562.425 50.462C562.467 50.3969 562.578 50.335 562.744 50.244C562.698 50.2982 562.596 50.3817 562.425 50.462Z" fill="#E9B120"/>
<path d="M563.329 49.7889C563.372 49.7318 563.48 49.6694 563.645 49.5787C563.599 49.6282 563.497 49.7059 563.329 49.7889Z" fill="#E9B120"/>
<path d="M561.49 51.4599C561.5 51.3951 561.566 51.2957 561.665 51.1472C561.647 51.2071 561.596 51.3162 561.49 51.4599Z" fill="#E9B120"/>
<path d="M561.747 51.1096C561.748 51.0679 561.82 51.0178 561.946 50.9315C561.94 50.9639 561.878 51.0326 561.747 51.1096Z" fill="#E9B120"/>
<path d="M561.052 51.9752C561.044 51.9439 561.092 51.8884 561.183 51.7975C561.183 51.8223 561.143 51.8852 561.052 51.9752Z" fill="#E9B120"/>
<path d="M562.202 50.7296C562.193 50.6962 562.245 50.6218 562.338 50.493C562.34 50.5219 562.301 50.6052 562.202 50.7296Z" fill="#E9B120"/>
<path d="M560.605 52.4312C560.6 52.3897 560.661 52.3406 560.767 52.2549C560.764 52.2868 560.717 52.3552 560.605 52.4312Z" fill="#E9B120"/>
<path d="M563.776 49.524C563.774 49.4908 563.831 49.4462 563.937 49.3762C563.932 49.401 563.881 49.4549 563.776 49.524Z" fill="#E9B120"/>
<path d="M566.001 47.3775C566.269 47.1852 566.581 47.0327 567.022 46.923C567.369 47.0856 567.587 47.2054 567.818 47.3456C567.832 47.366 567.858 47.4068 567.858 47.4068C567.371 47.6145 566.885 47.8222 566.317 48.0442C566.173 47.8447 566.109 47.6309 566.001 47.3775Z" fill="#E9B120"/>
<path d="M565.322 48.5471C565.295 48.6037 565.23 48.7092 565.126 48.8642C565.152 48.8078 565.219 48.7018 565.322 48.5471Z" fill="#E9B120"/>
<path d="M565.154 49.2468C565.1 49.3171 565.054 49.3191 564.939 49.3234C564.927 49.2205 564.984 49.1153 565.075 48.9602C565.126 48.9997 565.144 49.0891 565.154 49.2468Z" fill="#E9B120"/>
<path d="M568.614 46.408C569.582 46.334 570.55 46.2599 571.601 46.2177C571.619 46.4507 571.553 46.6521 571.47 46.9148C570.318 47.1135 569.183 47.2508 567.952 47.3975C567.858 47.4068 567.832 47.366 567.849 47.3055C567.822 47.0482 567.777 46.8513 567.732 46.6544C567.969 46.5762 568.205 46.4979 568.575 46.4668C568.963 46.614 569.218 46.714 569.472 46.814C569.494 46.7329 569.515 46.6518 569.537 46.5707C569.229 46.5165 568.921 46.4622 568.614 46.408Z" fill="#E9B120"/>
<path d="M573.312 47.4255C573.602 47.5039 573.948 47.6348 574.352 47.8233C574.063 47.7465 573.716 47.6123 573.312 47.4255Z" fill="#E9B120"/>
<path d="M572.743 47.2087C572.84 47.201 572.989 47.2567 573.213 47.3441C573.123 47.3413 572.96 47.3068 572.743 47.2087Z" fill="#E9B120"/>
<path d="M571.989 47.1092C572.036 47.092 572.155 47.0945 572.316 47.1109C572.259 47.1261 572.16 47.1276 571.989 47.1092Z" fill="#E9B120"/>
<path d="M574.411 47.8591C574.452 47.8495 574.509 47.8999 574.609 47.9886C574.576 47.991 574.501 47.955 574.411 47.8591Z" fill="#E9B120"/>
<path d="M574.776 48.0866C574.819 48.0725 574.898 48.1251 575.038 48.2177C575.003 48.2229 574.908 48.1881 574.776 48.0866Z" fill="#E9B120"/>
<path d="M575.085 48.3058C575.131 48.2945 575.186 48.3471 575.283 48.4387C575.248 48.4418 575.171 48.4057 575.085 48.3058Z" fill="#E9B120"/>
<path d="M572.171 46.0511C571.954 45.9066 571.81 45.7386 571.664 45.4827C571.662 45.3949 571.704 45.3457 571.752 45.3148C571.9 45.1724 572 45.061 572.1 44.9495C572.1 44.9495 572.146 44.9264 572.169 44.9149C572.489 45.219 572.786 45.5347 573.125 45.911C572.858 45.9902 572.551 46.0089 572.171 46.0511Z" fill="#E9B120"/>
<path d="M574.736 46.9471C575.437 46.9562 576.2 47.0182 577.063 47.09C576.375 47.0665 575.586 47.0333 574.736 46.9471Z" fill="#E9B120"/>
<path d="M577.161 47.0971C577.217 47.0543 577.337 46.9911 577.527 46.9277C577.474 46.9772 577.349 47.027 577.161 47.0971Z" fill="#E9B120"/>
<path d="M573.108 46.0427C573.176 46.0576 573.302 46.1008 573.473 46.199C573.4 46.1929 573.283 46.132 573.108 46.0427Z" fill="#E9B120"/>
<path d="M573.552 46.2858C573.579 46.2847 573.652 46.3213 573.759 46.4082C573.728 46.4136 573.663 46.3685 573.552 46.2858Z" fill="#E9B120"/>
<path d="M571.254 43.2937C571.054 42.9672 570.839 42.5665 570.619 42.0828C570.822 42.4065 571.031 42.813 571.254 43.2937Z" fill="#E9B120"/>
<path d="M578.894 46.2419C578.906 46.2868 578.849 46.338 578.75 46.4288C578.747 46.395 578.786 46.3216 578.894 46.2419Z" fill="#E9B120"/>
<path d="M567.694 46.6547C567.777 46.8513 567.822 47.0481 567.836 47.2851C567.587 47.2054 567.369 47.0856 567.097 46.9124C567.043 46.8589 567.082 46.8573 567.147 46.853C567.339 46.7965 567.465 46.7441 567.591 46.6917C567.591 46.6917 567.656 46.6551 567.694 46.6547Z" fill="#E9B120"/>
<path d="M571.641 45.4194C571.48 45.2652 571.338 45.0864 571.175 44.8428C571.152 44.7781 571.205 44.7435 571.275 44.7753C571.464 44.9867 571.584 45.1662 571.704 45.3457C571.704 45.3457 571.662 45.3949 571.641 45.4194Z" fill="#E9B120"/>
<path d="M567.518 46.6916C567.465 46.7441 567.339 46.7965 567.148 46.8719C567.204 46.8271 567.325 46.7592 567.518 46.6916Z" fill="#E9B120"/>
<path d="M571.752 45.3148C571.584 45.1661 571.464 44.9866 571.301 44.7579C571.512 44.7628 571.765 44.8169 572.059 44.9102C572 45.0609 571.9 45.1724 571.752 45.3148Z" fill="#E9B120"/>
<path d="M568.607 46.4071C568.921 46.4622 569.229 46.5165 569.537 46.5707C569.515 46.6518 569.494 46.7329 569.472 46.8141C569.218 46.714 568.963 46.614 568.652 46.4663C568.595 46.4185 568.6 46.4062 568.607 46.4071Z" fill="#E9B120"/>
<line x1="-0.00100603" y1="37.5" x2="509.999" y2="36.4738" stroke="#E9B120"/>
<line x1="580" y1="37.5" x2="1093" y2="37.5" stroke="#E9B120"/>
</svg>
